<svg width="2233" height="658" viewBox="0 0 2233 658" fill="none" xmlns="http://www.w3.org/2000/svg">
<rect y="0.259766" width="2232.98" height="657.373" fill="white"/>
<path d="M938.216 463.762V459.423H944.602V422.008H931.994V433.715H927V417.669H968.59V433.715H963.596V422.008H951.234V459.423H957.619V463.762H938.216Z" fill="black"/>
<path d="M971.668 463.762V459.423H977.644V421.107H971.75V416.85H983.703V436.335L981.492 436.745C983.839 434.998 986.186 433.579 988.533 432.487C990.88 431.341 993.309 430.768 995.819 430.768C998.767 430.768 1001.28 431.696 1003.35 433.552C1005.43 435.353 1006.46 438 1006.46 441.493V459.423H1012.36V463.762H995.083V459.423H1000.4V442.639C1000.4 440.401 999.858 438.655 998.767 437.399C997.73 436.144 996.256 435.516 994.346 435.516C992.272 435.516 990.116 436.035 987.878 437.072C985.64 438.054 983.566 439.282 981.656 440.756L983.703 437.809V459.423H988.942V463.762H971.668Z" fill="black"/>
<path d="M1033.6 464.744C1030.22 464.744 1027.13 464.035 1024.35 462.615C1021.62 461.196 1019.44 459.204 1017.8 456.639C1016.22 454.074 1015.43 451.099 1015.43 447.715C1015.43 444.222 1016.19 441.22 1017.72 438.709C1019.25 436.144 1021.29 434.179 1023.86 432.815C1026.42 431.396 1029.29 430.686 1032.46 430.686C1035.73 430.686 1038.54 431.368 1040.89 432.733C1043.29 434.097 1045.12 436.035 1046.37 438.546C1047.63 441.056 1048.26 444.004 1048.26 447.388V448.943H1020.75L1020.83 445.177H1042.28C1042.28 443.049 1041.84 441.247 1040.97 439.774C1040.15 438.245 1039 437.099 1037.53 436.335C1036.06 435.516 1034.37 435.107 1032.46 435.107C1030.44 435.107 1028.61 435.598 1026.97 436.581C1025.33 437.509 1024.02 438.873 1023.04 440.674C1022.11 442.421 1021.65 444.549 1021.65 447.06C1021.65 449.735 1022.14 452.054 1023.12 454.019C1024.1 455.929 1025.47 457.43 1027.22 458.522C1029.02 459.559 1031.06 460.077 1033.36 460.077C1035.81 460.077 1038.08 459.586 1040.15 458.604C1042.22 457.621 1044.03 456.393 1045.55 454.92L1047.68 458.604C1046.21 460.296 1044.3 461.742 1041.95 462.943C1039.61 464.144 1036.82 464.744 1033.6 464.744Z" fill="black"/>
<path d="M1552.26 432.843C1555.32 432.843 1558.07 433.524 1560.51 434.885C1563.01 436.19 1564.96 438.147 1566.38 440.756C1567.8 443.309 1568.51 446.372 1568.51 449.945C1568.51 453.632 1567.72 456.837 1566.13 459.559C1564.6 462.282 1562.5 464.381 1559.83 465.856C1557.22 467.274 1554.36 467.983 1551.24 467.983C1549.25 467.983 1547.35 467.671 1545.54 467.047C1543.78 466.423 1542.33 465.6 1541.2 464.579L1541.11 475.895H1547.66V480.405H1528.86V475.895H1534.9V438.204H1529.03V433.694H1540.77L1540.86 436.842C1542.5 435.538 1544.29 434.545 1546.22 433.864C1548.2 433.184 1550.22 432.843 1552.26 432.843ZM1550.13 463.303C1553.65 463.303 1556.48 462.197 1558.64 459.985C1560.85 457.716 1561.96 454.54 1561.96 450.456C1561.96 446.485 1560.88 443.365 1558.73 441.096C1556.63 438.827 1553.9 437.693 1550.56 437.693C1549.2 437.693 1547.61 437.977 1545.79 438.544C1544.03 439.111 1542.47 439.962 1541.11 441.096L1541.2 460.07C1542.5 461.091 1543.92 461.885 1545.45 462.452C1547.04 463.02 1548.6 463.303 1550.13 463.303Z" fill="black"/>
<path d="M1608.3 462.622V467.132H1597.5L1597.16 464.154C1595.34 465.515 1593.53 466.508 1591.71 467.132C1589.9 467.756 1587.86 468.068 1585.59 468.068C1582.18 468.068 1579.41 467.132 1577.25 465.26C1575.15 463.331 1574.1 460.949 1574.1 458.113C1574.1 454.483 1575.32 451.845 1577.76 450.2C1580.26 448.499 1583.52 447.648 1587.54 447.648C1590.44 447.648 1593.53 448.016 1596.82 448.754V445.265C1596.82 442.713 1596.11 440.784 1594.69 439.48C1593.33 438.175 1591.4 437.523 1588.91 437.523C1587.26 437.523 1585.36 437.806 1583.21 438.374C1581.11 438.884 1579.18 439.622 1577.42 440.586L1575.55 436.502C1577.42 435.311 1579.58 434.403 1582.01 433.779C1584.51 433.155 1586.84 432.843 1588.99 432.843C1593.36 432.843 1596.79 433.921 1599.29 436.076C1601.78 438.175 1603.03 441.04 1603.03 444.67V462.622H1608.3ZM1580.06 457.773C1580.06 459.531 1580.62 460.978 1581.76 462.112C1582.95 463.19 1584.54 463.729 1586.52 463.729C1589.87 463.729 1593.3 462.509 1596.82 460.07V452.412C1593.81 451.732 1590.86 451.391 1587.97 451.391C1585.7 451.391 1583.8 451.902 1582.27 452.923C1580.79 453.887 1580.06 455.504 1580.06 457.773Z" fill="black"/>
<path d="M1630.77 437.693C1627.14 437.693 1624.16 438.856 1621.84 441.181C1619.51 443.507 1618.35 446.457 1618.35 450.03C1618.35 453.887 1619.48 457.035 1621.75 459.474C1624.02 461.857 1626.97 463.048 1630.6 463.048C1633.32 463.048 1635.62 462.537 1637.49 461.516C1639.37 460.439 1641.18 458.907 1642.94 456.922L1645.58 460.751C1643.82 463.02 1641.63 464.806 1639.02 466.111C1636.42 467.359 1633.41 467.983 1630.01 467.983C1626.49 467.983 1623.34 467.217 1620.56 465.685C1617.84 464.154 1615.68 462.055 1614.1 459.389C1612.56 456.667 1611.8 453.604 1611.8 450.2C1611.8 446.797 1612.54 443.791 1614.01 441.181C1615.54 438.516 1617.64 436.445 1620.31 434.97C1622.97 433.496 1625.98 432.758 1629.33 432.758C1631.82 432.758 1634.03 433.212 1635.96 434.12C1637.89 435.027 1639.37 436.247 1640.39 437.778V433.524H1645.66V445.521H1640.9C1640.39 443.082 1639.22 441.181 1637.41 439.82C1635.59 438.402 1633.38 437.693 1630.77 437.693Z" fill="black"/>
<path d="M1728.45 462.622V467.132H1717.65L1717.31 464.154C1715.49 465.515 1713.68 466.508 1711.86 467.132C1710.05 467.756 1708 468.068 1705.73 468.068C1702.33 468.068 1699.55 467.132 1697.4 465.26C1695.3 463.331 1694.25 460.949 1694.25 458.113C1694.25 454.483 1695.47 451.845 1697.91 450.2C1700.4 448.499 1703.66 447.648 1707.69 447.648C1710.58 447.648 1713.68 448.016 1716.97 448.754V445.265C1716.97 442.713 1716.26 440.784 1714.84 439.48C1713.48 438.175 1711.55 437.523 1709.05 437.523C1707.41 437.523 1705.51 437.806 1703.35 438.374C1701.25 438.884 1699.33 439.622 1697.57 440.586L1695.69 436.502C1697.57 435.311 1699.72 434.403 1702.16 433.779C1704.66 433.155 1706.98 432.843 1709.14 432.843C1713.51 432.843 1716.94 433.921 1719.43 436.076C1721.93 438.175 1723.18 441.04 1723.18 444.67V462.622H1728.45ZM1700.2 457.773C1700.2 459.531 1700.77 460.978 1701.91 462.112C1703.1 463.19 1704.69 463.729 1706.67 463.729C1710.02 463.729 1713.45 462.509 1716.97 460.07V452.412C1713.96 451.732 1711.01 451.391 1708.12 451.391C1705.85 451.391 1703.95 451.902 1702.42 452.923C1700.94 453.887 1700.2 455.504 1700.2 457.773Z" fill="black"/>
<path d="M1766.91 433.694V467.898C1766.91 473.059 1765.35 476.888 1762.23 479.384C1759.11 481.88 1754.95 483.128 1749.73 483.128C1745.76 483.128 1741.56 482.447 1737.14 481.086L1738.41 476.151C1742.72 477.455 1746.44 478.108 1749.56 478.108C1753.07 478.108 1755.8 477.285 1757.73 475.64C1759.65 474.052 1760.62 471.613 1760.62 468.323V463.729C1759.03 464.92 1757.24 465.827 1755.26 466.451C1753.33 467.075 1751.4 467.387 1749.47 467.387C1746.3 467.387 1743.4 466.706 1740.79 465.345C1738.18 463.927 1736.11 461.913 1734.58 459.304C1733.11 456.695 1732.37 453.632 1732.37 450.115C1732.37 446.485 1733.11 443.394 1734.58 440.841C1736.06 438.232 1738.07 436.275 1740.62 434.97C1743.23 433.609 1746.13 432.928 1749.3 432.928C1751.23 432.928 1753.22 433.269 1755.26 433.949C1757.3 434.573 1759.06 435.481 1760.53 436.672V433.694H1766.91ZM1738.92 450.541C1738.92 454.341 1740.03 457.319 1742.24 459.474C1744.45 461.63 1747.29 462.708 1750.75 462.708C1752.39 462.708 1754.07 462.424 1755.77 461.857C1757.53 461.289 1759.14 460.467 1760.62 459.389L1760.53 441.011C1758.89 439.934 1757.13 439.083 1755.26 438.459C1753.44 437.835 1751.71 437.523 1750.07 437.523C1746.72 437.523 1744.03 438.686 1741.98 441.011C1739.94 443.28 1738.92 446.457 1738.92 450.541Z" fill="black"/>
<path d="M1809.18 451.732H1781.61C1782.01 455.305 1783.28 458.141 1785.44 460.24C1787.59 462.282 1790.34 463.303 1793.69 463.303C1798.34 463.303 1802.57 461.516 1806.37 457.943L1808.58 461.772C1806.93 463.7 1804.86 465.26 1802.37 466.451C1799.87 467.586 1797.07 468.153 1793.95 468.153C1790.43 468.153 1787.22 467.415 1784.33 465.941C1781.44 464.466 1779.17 462.396 1777.52 459.73C1775.88 457.007 1775.06 453.916 1775.06 450.456C1775.06 446.939 1775.82 443.847 1777.35 441.181C1778.94 438.459 1781.07 436.388 1783.74 434.97C1786.46 433.496 1789.46 432.758 1792.75 432.758C1797.86 432.758 1801.86 434.318 1804.75 437.438C1807.7 440.558 1809.18 444.783 1809.18 450.115V451.732ZM1802.96 447.818C1802.96 444.585 1802 442.032 1800.07 440.16C1798.2 438.289 1795.76 437.353 1792.75 437.353C1789.8 437.353 1787.31 438.289 1785.27 440.16C1783.22 442.032 1782.01 444.585 1781.61 447.818H1802.96Z" fill="black"/>
<path d="M1077.47 462.622H1084.11V423.739H1077.47V419.23H1118.4V433.779H1113.04V423.739H1091.08V439.82H1109.12V444.67H1091.08V462.622H1097.72V467.132H1077.47V462.622Z" fill="black"/>
<path d="M1140.43 468.153C1136.86 468.153 1133.71 467.415 1130.99 465.941C1128.27 464.466 1126.14 462.395 1124.61 459.729C1123.13 457.007 1122.39 453.887 1122.39 450.37C1122.39 446.854 1123.13 443.762 1124.61 441.096C1126.14 438.43 1128.27 436.388 1130.99 434.97C1133.71 433.495 1136.86 432.758 1140.43 432.758C1144.01 432.758 1147.15 433.495 1149.88 434.97C1152.66 436.388 1154.81 438.43 1156.34 441.096C1157.87 443.762 1158.64 446.825 1158.64 450.285C1158.64 453.802 1157.87 456.922 1156.34 459.644C1154.81 462.367 1152.66 464.466 1149.88 465.941C1147.15 467.415 1144.01 468.153 1140.43 468.153ZM1140.43 463.218C1143.95 463.218 1146.78 462.055 1148.94 459.729C1151.1 457.347 1152.17 454.199 1152.17 450.285C1152.17 446.485 1151.1 443.45 1148.94 441.181C1146.78 438.856 1143.95 437.693 1140.43 437.693C1136.92 437.693 1134.11 438.856 1132.01 441.181C1129.91 443.507 1128.86 446.57 1128.86 450.37C1128.86 454.227 1129.91 457.347 1132.01 459.729C1134.16 462.055 1136.97 463.218 1140.43 463.218Z" fill="black"/>
<path d="M1184.98 433.269C1187.14 433.269 1189.4 433.836 1191.79 434.97L1190.26 440.671C1188.33 439.423 1186.37 438.799 1184.38 438.799C1182.12 438.799 1180.22 439.735 1178.68 441.607C1177.21 443.422 1176.47 445.946 1176.47 449.179L1176.39 462.622H1182.34V467.132H1163.71V462.622H1170.18V438.203H1163.71V433.694H1176.39V439.82C1178.2 435.452 1181.07 433.269 1184.98 433.269Z" fill="black"/>
<path d="M1210.48 467.132C1204.02 467.132 1200.78 463.842 1200.78 457.262V438.203H1195.25V433.694H1200.78V422.293L1207.08 419.825V433.694H1215.93V438.203H1207.08V456.922C1207.08 459.02 1207.42 460.495 1208.1 461.346C1208.78 462.197 1209.94 462.622 1211.59 462.622H1216.69V467.132H1210.48Z" fill="black"/>
<path d="M1243.39 433.269C1245.55 433.269 1247.82 433.836 1250.2 434.97L1248.67 440.671C1246.74 439.423 1244.78 438.799 1242.8 438.799C1240.53 438.799 1238.63 439.735 1237.1 441.607C1235.62 443.422 1234.88 445.946 1234.88 449.179L1234.8 462.622H1240.75V467.132H1222.12V462.622H1228.59V438.203H1222.12V433.694H1234.8V439.82C1236.61 435.452 1239.48 433.269 1243.39 433.269Z" fill="black"/>
<path d="M1289.49 462.622V467.132H1278.68L1278.34 464.154C1276.52 465.515 1274.71 466.508 1272.89 467.132C1271.08 467.756 1269.04 468.068 1266.77 468.068C1263.36 468.068 1260.59 467.132 1258.43 465.26C1256.33 463.331 1255.28 460.949 1255.28 458.113C1255.28 454.483 1256.5 451.845 1258.94 450.2C1261.44 448.498 1264.7 447.648 1268.73 447.648C1271.62 447.648 1274.71 448.016 1278 448.754V445.265C1278 442.713 1277.29 440.784 1275.87 439.48C1274.51 438.175 1272.58 437.523 1270.09 437.523C1268.44 437.523 1266.54 437.806 1264.39 438.374C1262.29 438.884 1260.36 439.621 1258.6 440.586L1256.73 436.502C1258.6 435.311 1260.76 434.403 1263.19 433.779C1265.69 433.155 1268.02 432.843 1270.17 432.843C1274.54 432.843 1277.97 433.921 1280.47 436.076C1282.96 438.175 1284.21 441.04 1284.21 444.67V462.622H1289.49ZM1261.24 457.773C1261.24 459.531 1261.81 460.977 1262.94 462.112C1264.13 463.19 1265.72 463.728 1267.7 463.728C1271.05 463.728 1274.48 462.509 1278 460.07V452.412C1274.99 451.732 1272.04 451.391 1269.15 451.391C1266.88 451.391 1264.98 451.902 1263.45 452.923C1261.98 453.887 1261.24 455.504 1261.24 457.773Z" fill="black"/>
<path d="M1334.58 462.622V467.132H1316.63V462.622H1322.16V445.18C1322.16 442.855 1321.59 441.04 1320.46 439.735C1319.33 438.43 1317.77 437.778 1315.78 437.778C1314.14 437.778 1312.46 438.09 1310.76 438.714C1309.12 439.281 1307.3 440.16 1305.32 441.351V462.622H1311.36V467.132H1292.64V462.622H1299.1V438.203H1292.64V433.694H1305.32V437.012C1309.74 434.233 1313.77 432.843 1317.4 432.843C1320.57 432.843 1323.18 433.836 1325.23 435.821C1327.32 437.75 1328.37 440.472 1328.37 443.989V462.622H1334.58Z" fill="black"/>
<path d="M1357.04 469.125H1363.68V430.242H1357.04V425.732H1397.97V440.282H1392.61V430.242H1370.66V446.323H1388.7V451.172H1370.66V469.125H1377.29V473.634H1357.04V469.125Z" fill="black"/>
<path d="M1403.99 469.125H1410.62V430.242H1403.99V425.732H1444.91V440.282H1439.55V430.242H1417.6V446.323H1435.64V451.172H1417.6V469.125H1424.24V473.634H1403.99V469.125Z" fill="black"/>
<path d="M1650.77 462.623H1657.06V422.804H1650.94V418.379H1663.36V462.623H1668.8V467.132H1650.77V462.623Z" fill="black"/>
<path fill-rule="evenodd" clip-rule="evenodd" d="M1663.36 450.704L1679.78 467.125H1689.56V462.616H1682.93L1669.82 449.683L1663.35 449.684L1663.36 450.704Z" fill="black"/>
<path fill-rule="evenodd" clip-rule="evenodd" d="M1663.36 448.662L1679.64 433.681H1689.43V438.191H1682.79L1669.82 449.683L1663.35 449.682L1663.36 448.662Z" fill="black"/>
<path d="M1462.11 473.626V469.117H1468.74V430.241H1455.64V442.405H1450.45V425.732H1493.67V442.405H1488.48V430.241H1475.63V469.117H1482.27V473.626H1462.11Z" fill="black"/>
<path d="M926.236 370.845L945.79 248.211C947.348 238.86 950.111 231.704 954.079 226.745C958.188 221.786 963.005 218.385 968.531 216.543C974.057 214.701 979.654 213.851 985.322 213.993C997.082 213.993 1008.13 214.205 1018.48 214.63C1028.82 215.055 1039.09 215.622 1049.3 216.331L1045.89 238.222H988.722C983.338 238.222 979.229 239.568 976.395 242.26C973.703 244.952 971.861 249.061 970.869 254.587L966.193 284.343L1028.68 286.043L1025.28 306.659L962.58 308.147L952.591 370.845H926.236Z" fill="black"/>
<path d="M1043.09 370.845L1062.64 248.211C1064.2 238.86 1066.97 231.704 1070.93 226.745C1075.04 221.786 1079.86 218.385 1085.39 216.543C1090.91 214.701 1096.51 213.851 1102.18 213.993C1113.94 213.993 1124.99 214.205 1135.33 214.63C1145.67 215.055 1155.95 215.622 1166.15 216.331L1162.75 238.222H1105.58C1100.19 238.222 1096.08 239.568 1093.25 242.26C1090.56 244.952 1088.71 249.061 1087.72 254.587L1083.05 284.343L1145.53 286.043L1142.13 306.659L1079.43 308.147L1069.44 370.845H1043.09Z" fill="black"/>
<path d="M1198.58 370.845L1219.62 237.584H1174.35L1178.17 213.993H1295.07L1291.24 237.584H1245.97L1224.93 370.845H1198.58Z" fill="black"/>
<path d="M1291.33 370.843L1316.19 213.991H1377.83C1385.2 213.991 1391.79 215.195 1397.6 217.604C1403.55 219.871 1408.29 223.909 1411.84 229.719C1415.38 235.386 1417.15 243.392 1417.15 253.735C1417.15 255.861 1416.94 258.482 1416.51 261.599C1416.09 264.575 1415.66 267.267 1415.24 269.676C1413.82 279.311 1411.41 287.316 1408.01 293.692C1404.75 299.927 1400.86 304.886 1396.32 308.57C1391.79 312.254 1386.9 314.875 1381.66 316.434C1376.41 317.993 1371.17 318.772 1365.93 318.772C1359.13 318.772 1352.11 318.418 1344.89 317.709C1337.66 317.001 1331.57 316.292 1326.61 315.584L1317.68 370.843H1291.33ZM1329.58 295.18H1362.74C1367.13 295.18 1371.1 294.259 1374.64 292.417C1378.33 290.434 1381.37 287.387 1383.78 283.278C1386.33 279.027 1388.1 273.572 1389.1 266.913C1389.38 265.071 1389.66 263.087 1389.95 260.962C1390.23 258.836 1390.37 257.278 1390.37 256.286C1390.37 249.343 1388.81 244.526 1385.69 241.833C1382.72 239 1378.4 237.583 1372.73 237.583H1338.72L1329.58 295.18Z" fill="black"/>
<path d="M1400.52 370.843L1477.03 213.991H1510.19L1535.69 370.843H1508.49L1502.54 333.862H1445.58L1427.73 370.843H1400.52ZM1455.57 310.27H1499.99L1489.79 236.733L1455.57 310.27Z" fill="black"/>
<path d="M1609.17 372.119C1592.3 372.119 1579.91 367.585 1571.97 358.516C1564.04 349.448 1560.07 336.696 1560.07 320.26C1560.07 315.159 1560.28 309.845 1560.71 304.319C1561.27 298.793 1561.98 293.338 1562.83 287.954C1565.38 271.518 1569.28 257.703 1574.52 246.509C1579.76 235.316 1586.78 226.885 1595.56 221.217C1604.35 215.55 1615.26 212.716 1628.29 212.716C1640.2 212.716 1650.19 213.637 1658.26 215.479C1666.34 217.179 1672.93 218.879 1678.03 220.58L1674.63 241.196C1668.25 239.779 1661.52 238.645 1654.44 237.795C1647.35 236.803 1640.13 236.307 1632.76 236.307C1626.66 236.307 1621.28 237.158 1616.6 238.858C1612.07 240.558 1608.03 243.534 1604.49 247.784C1601.09 251.893 1598.11 257.632 1595.56 265C1593.01 272.368 1590.82 281.72 1588.97 293.055C1588.12 297.872 1587.42 302.69 1586.85 307.507C1586.42 312.325 1586.21 316.646 1586.21 320.472C1586.21 330.249 1588.41 337.404 1592.8 341.938C1597.33 346.331 1605.13 348.527 1616.18 348.527C1625.96 348.527 1633.89 348.315 1639.98 347.889C1646.08 347.323 1652.1 346.614 1658.05 345.764L1654.65 366.38C1647.71 368.647 1640.2 370.135 1632.12 370.843C1624.19 371.694 1616.53 372.119 1609.17 372.119Z" fill="black"/>
<path d="M1678.63 370.845L1703.5 213.986H1729.85L1719.44 280.3L1782.05 213.986H1808.41L1741.2 292.505L1789.28 370.845H1763.15L1715.92 302.4L1704.98 370.845H1678.63Z" fill="black"/>
<path fill-rule="evenodd" clip-rule="evenodd" d="M441.593 270.853C452.693 209.322 508.152 173.808 557.101 174.432L678.658 174.396C731.704 174.974 769.589 217.921 763.441 270.816L747.783 387.011C736.682 448.542 681.222 484.057 632.274 483.433L510.06 483.43C457.053 482.813 419.207 439.881 425.352 387.011L441.593 270.853Z" fill="black"/>
<path d="M426.853 376.281L433.922 325.717C434.204 326.771 435.03 329.431 435.866 332.124C436.845 335.275 437.838 338.47 437.988 339.189C441.346 355.276 447.345 376.29 454.215 376.29C464.329 376.29 477.494 343.759 484.52 325.018C486.937 318.573 489.589 312.31 492.421 306.043C499.248 290.943 506.828 275.506 514.578 260.826C518.383 253.618 533.188 228.624 548.511 228.624C563.004 228.624 576.967 259.069 589.329 287.34C594.391 300.34 599.397 313.484 604.352 326.617C606.568 332.679 609.368 338.704 611.488 343.268L611.489 343.269C612.63 345.725 613.575 347.758 614.126 349.145C625.566 377.952 636.922 391.949 644.234 391.949C653.672 391.949 660.053 381.083 673.842 349.145L673.843 349.143C675.379 345.585 677.028 341.766 678.813 337.671C682.417 329.404 685.744 321.08 688.926 312.528C698.487 286.833 715.352 242.12 733.458 242.12C744.534 242.12 758.792 269.725 761.956 281.837L754.784 335.058C754.143 332.377 753.45 328.596 752.652 324.242C749.333 306.132 744.198 278.111 733.458 278.111C724.004 278.111 713.402 306.589 706.32 325.611C705.826 326.937 705.35 328.218 704.892 329.439C701.788 337.714 698.216 345.719 694.557 353.772C685.704 373.326 683.144 378.98 675.588 393.293C668.916 405.93 658.309 424.58 644.234 424.58C629.122 424.58 615.913 398.242 602.32 371.139C601.098 368.701 599.872 366.258 598.642 363.827L597.999 362.318C592.976 350.522 587.587 337.866 582.329 324.669C580.475 320.485 578.407 314.757 576.134 308.462C568.905 288.434 559.605 262.67 548.511 262.67C537.169 262.67 528.408 275.934 510.598 316.786C508.459 321.693 506.639 326.708 504.82 331.723C503.024 336.672 501.228 341.621 499.126 346.467L498.741 347.354C488.564 370.814 470.528 412.392 454.215 412.392C442.659 412.392 431.715 388.159 426.853 376.281Z" fill="#63EEA9"/>
<path d="M434.868 318.95L432.039 339.196H562.912C561.842 348.406 568.437 355.888 577.672 355.995L561.328 483.431L582.721 483.432L598.967 355.995C607.496 356.105 617.159 349.918 619.094 339.196H754.226L756.955 318.95H621.822C622.893 309.734 616.292 302.25 607.049 302.148L623.232 174.412L602.712 174.418L585.868 302.154C577.34 302.047 567.677 308.228 565.742 318.95C522.129 318.95 478.482 318.53 434.868 318.95Z" fill="white"/>
</svg>
