<svg width="340" height="310" viewBox="0 0 340 310" fill="none" xmlns="http://www.w3.org/2000/svg">
<path fill-rule="evenodd" clip-rule="evenodd" d="M16.8948 96.4574C27.9953 34.926 83.4545 -0.588298 132.403 0.0355086L253.96 0C307.006 0.577762 344.891 43.5253 338.743 96.4202L323.085 212.615C311.984 274.146 256.525 309.661 207.576 309.037L85.3621 309.034C32.355 308.417 -5.4912 265.485 0.653998 212.615L16.8948 96.4574Z" fill="black"/>
<path fill-rule="evenodd" clip-rule="evenodd" d="M329.529 164.796H194.395C192.46 175.518 182.797 181.705 174.268 181.595L158.017 309.036L136.624 309.035L152.973 181.595C143.738 181.488 137.142 174.006 138.213 164.796H7.33984L10.1296 144.843C24.6223 144.702 61.3256 144.556 141.043 144.556C142.978 133.835 152.641 127.647 161.169 127.754L178.043 0.022351L198.561 0.0163574L182.35 127.748C191.592 127.85 198.193 135.334 197.123 144.551H332.257L329.529 164.796Z" fill="white"/>
<path fill-rule="evenodd" clip-rule="evenodd" d="M332.257 144.551L337.757 103.734C331.054 87.5879 321.533 75.4 310.114 77.3856C288.316 81.1757 269.669 131.171 265.293 142.905C265.093 143.442 264.888 143.991 264.679 144.551H287.722C289.199 141.157 290.683 137.772 292.18 134.399C297.176 123.142 303.021 113.37 309.062 112.635C315.715 111.826 322.385 125.927 325.349 137.597C325.747 139.162 325.988 140.75 326.199 142.131C326.339 143.052 326.466 143.881 326.615 144.551H332.257ZM278.988 164.796H256.865C250.132 181.415 241.397 200.496 231.381 214.225L231.041 214.692C228.42 218.296 225.329 222.548 220.624 223.027C216.954 223.398 214.07 219.798 211.929 217.125L211.927 217.122C207.822 211.988 204.386 206.404 201.385 200.56C197.068 192.153 193.111 183.585 189.356 174.928C185.306 179.3 179.569 181.664 174.268 181.595L173.328 188.968C179.638 204.139 183.593 212.767 189.609 224.481C193.709 232.466 198.167 239.519 202.549 244.931C206.834 250.223 211.504 254.505 215.917 255.946C220.222 257.351 226.094 256.077 230.224 253.261C233.603 250.957 237.419 246.599 240.961 241.744C244.59 236.769 248.319 230.737 251.533 224.505C261.528 205.127 270.313 184.951 278.988 164.796ZM149.73 131.303C146.162 123.139 142.409 115.061 138.338 107.132C138.204 106.872 138.049 106.566 137.874 106.221L137.831 106.135C134.868 100.272 126.422 83.5598 118.662 84.7192C115.275 85.2149 112.956 87.6794 110.876 90.1913C98.7259 104.873 90.0656 125.08 82.2516 144.59C74.0985 144.6 66.7127 144.613 60.0327 144.627C68.9822 123.785 78.132 102.685 88.1897 83.1862C91.4037 76.9545 95.1316 70.9221 98.7608 65.9476C102.302 61.0928 106.119 56.7342 109.499 54.4296C113.628 51.6145 119.537 50.3761 123.842 51.7812C128.255 53.2223 132.888 57.4683 137.173 62.7599C141.555 68.1717 146.013 75.2252 150.114 83.2101C155.094 92.9101 158.664 100.494 163.326 111.429L161.17 127.754C157.315 127.706 153.229 128.943 149.73 131.303ZM51.3485 164.796H74.1435C73.6043 166.099 73.0645 167.387 72.5234 168.658C62.2329 192.818 44.8692 230.835 28.4682 233.687C17.1974 235.647 8.04865 223.349 1.37158 207.483L7.33985 164.796H12.6563C13.1558 166.348 13.8579 169.086 14.5844 171.943L14.6089 172.037L14.616 172.069C17.5805 183.74 22.8683 199.247 29.5209 198.437C35.5605 197.703 41.6183 186.844 46.6149 175.587C48.1963 172.024 49.7729 168.423 51.3485 164.796Z" fill="#63EEA9"/>
<path fill-rule="evenodd" clip-rule="evenodd" d="M16.8948 96.4574C27.9953 34.926 83.4545 -0.588298 132.403 0.0355086L253.96 0C307.006 0.577762 344.891 43.5253 338.743 96.4202L323.085 212.615C311.984 274.146 256.525 309.661 207.576 309.037L85.3621 309.034C32.355 308.417 -5.4912 265.485 0.653998 212.615L16.8948 96.4574Z" fill="black"/>
<path fill-rule="evenodd" clip-rule="evenodd" d="M329.529 164.796H194.395C192.46 175.518 182.797 181.705 174.268 181.595L158.017 309.036L136.624 309.035L152.973 181.595C143.738 181.488 137.142 174.006 138.213 164.796H7.33984L10.1296 144.843C24.6223 144.702 61.3256 144.556 141.043 144.556C142.978 133.835 152.641 127.647 161.169 127.754L178.043 0.022351L198.561 0.0163574L182.35 127.748C191.592 127.85 198.193 135.334 197.123 144.551H332.257L329.529 164.796Z" fill="white"/>
<path fill-rule="evenodd" clip-rule="evenodd" d="M332.257 144.551L337.757 103.734C331.054 87.5879 321.533 75.4 310.114 77.3856C288.316 81.1757 269.669 131.171 265.293 142.905C265.093 143.442 264.888 143.991 264.679 144.551H287.722C289.199 141.157 290.683 137.772 292.18 134.399C297.176 123.142 303.021 113.37 309.062 112.635C315.715 111.826 322.385 125.927 325.349 137.597C325.747 139.162 325.988 140.75 326.199 142.131C326.339 143.052 326.466 143.881 326.615 144.551H332.257ZM278.988 164.796H256.865C250.132 181.415 241.397 200.496 231.381 214.225L231.041 214.692C228.42 218.296 225.329 222.548 220.624 223.027C216.954 223.398 214.07 219.798 211.929 217.125L211.927 217.122C207.822 211.988 204.386 206.404 201.385 200.56C197.068 192.153 193.111 183.585 189.356 174.928C185.306 179.3 179.569 181.664 174.268 181.595L173.328 188.968C179.638 204.139 183.593 212.767 189.609 224.481C193.709 232.466 198.167 239.519 202.549 244.931C206.834 250.223 211.504 254.505 215.917 255.946C220.222 257.351 226.094 256.077 230.224 253.261C233.603 250.957 237.419 246.599 240.961 241.744C244.59 236.769 248.319 230.737 251.533 224.505C261.528 205.127 270.313 184.951 278.988 164.796ZM149.73 131.303C146.162 123.139 142.409 115.061 138.338 107.132C138.204 106.872 138.049 106.566 137.874 106.221L137.831 106.135C134.868 100.272 126.422 83.5598 118.662 84.7192C115.275 85.2149 112.956 87.6794 110.876 90.1913C98.7259 104.873 90.0656 125.08 82.2516 144.59C74.0985 144.6 66.7127 144.613 60.0327 144.627C68.9822 123.785 78.132 102.685 88.1897 83.1862C91.4037 76.9545 95.1316 70.9221 98.7608 65.9476C102.302 61.0928 106.119 56.7342 109.499 54.4296C113.628 51.6145 119.537 50.3761 123.842 51.7812C128.255 53.2223 132.888 57.4683 137.173 62.7599C141.555 68.1717 146.013 75.2252 150.114 83.2101C155.094 92.9101 158.664 100.494 163.326 111.429L161.17 127.754C157.315 127.706 153.229 128.943 149.73 131.303ZM51.3485 164.796H74.1435C73.6043 166.099 73.0645 167.387 72.5234 168.658C62.2329 192.818 44.8692 230.835 28.4682 233.687C17.1974 235.647 8.04865 223.349 1.37158 207.483L7.33985 164.796H12.6563C13.1558 166.348 13.8579 169.086 14.5844 171.943L14.6089 172.037L14.616 172.069C17.5805 183.74 22.8683 199.247 29.5209 198.437C35.5605 197.703 41.6183 186.844 46.6149 175.587C48.1963 172.024 49.7729 168.423 51.3485 164.796Z" fill="#63EEA9"/>
</svg>
