<svg width="341" height="311" viewBox="0 0 341 311" fill="none" xmlns="http://www.w3.org/2000/svg">
<path fill-rule="evenodd" clip-rule="evenodd" d="M17.5925 96.8529C28.6931 35.3215 84.1521 -0.192749 133.101 0.43103L254.658 0.395508C307.704 0.973267 345.589 43.9208 339.441 96.8158L323.783 213.01C312.682 274.542 257.222 310.056 208.274 309.432L86.0603 309.43C33.0525 308.812 -4.7932 265.88 1.35231 213.01L17.5925 96.8529Z" fill="black"/>
<path d="M2.85254 202.28L9.92194 151.717C10.2035 152.77 11.0299 155.43 11.8664 158.123C12.8452 161.274 13.8379 164.47 13.9879 165.188C17.3456 181.275 23.3451 202.289 30.2155 202.289C40.3288 202.289 53.4935 169.758 60.5199 151.017C62.937 144.572 65.5887 138.309 68.4215 132.043C75.2479 116.942 82.8276 101.505 90.5778 86.8255C94.3835 79.6176 109.188 54.6233 124.511 54.6233C139.004 54.6233 152.967 85.068 165.329 113.339C170.391 126.34 175.397 139.483 180.352 152.617C182.568 158.678 185.368 164.703 187.488 169.267L187.489 169.268C188.63 171.724 189.575 173.757 190.126 175.144C201.566 203.951 212.922 217.949 220.234 217.949C229.672 217.949 236.053 207.082 249.842 175.144L249.843 175.142C251.379 171.584 253.028 167.765 254.813 163.67C258.417 155.403 261.744 147.079 264.926 138.528C274.487 112.832 291.352 68.1198 309.458 68.1198C320.534 68.1198 334.792 95.7244 337.956 107.836L330.784 161.058C330.143 158.377 329.45 154.595 328.652 150.241C325.333 132.132 320.198 104.11 309.458 104.11C300.004 104.11 289.402 132.588 282.32 151.61C281.826 152.936 281.35 154.217 280.892 155.438C277.788 163.713 274.216 171.718 270.557 179.772C261.704 199.325 259.144 204.979 251.588 219.292C244.916 231.93 234.309 250.579 220.234 250.579C205.122 250.579 191.913 224.242 178.32 197.138C177.098 194.701 175.872 192.257 174.642 189.826L173.999 188.317C168.976 176.521 163.587 163.865 158.329 150.668C156.475 146.485 154.407 140.756 152.134 134.461C144.905 114.433 135.605 88.6691 124.511 88.6691C113.169 88.6691 104.408 101.933 86.5978 142.786C84.4591 147.692 82.6395 152.707 80.8197 157.722C79.0241 162.671 77.2282 167.621 75.1256 172.466L74.741 173.353C64.5642 196.813 46.5281 238.391 30.2155 238.391C18.6593 238.391 7.71543 214.158 2.85254 202.28Z" fill="#63EEA9"/>
<path d="M10.868 144.95L8.03906 165.195H138.912C137.842 174.406 144.437 181.887 153.672 181.995L137.328 309.431L158.721 309.431L174.967 181.995C183.496 182.105 193.159 175.917 195.094 165.195H330.226L332.955 144.95H197.822C198.893 135.733 192.292 128.249 183.049 128.148L199.232 0.411621L178.712 0.417618L161.868 128.154C153.34 128.046 143.677 134.228 141.742 144.95C98.1286 144.95 54.4816 144.529 10.868 144.95Z" fill="white"/>
</svg>
