<svg width="2234" height="932" viewBox="0 0 2234 932" fill="none" xmlns="http://www.w3.org/2000/svg">
<rect x="0.172607" y="0.51709" width="2232.98" height="931.099" fill="white"/>
<path d="M675.573 703.172L695.127 580.538C696.685 571.186 699.448 564.031 703.416 559.072C707.525 554.112 712.342 550.712 717.868 548.87C723.394 547.028 728.991 546.178 734.659 546.319C746.419 546.319 757.471 546.532 767.814 546.957C778.158 547.382 788.43 547.949 798.632 548.657L795.232 570.549H738.059C732.675 570.549 728.566 571.895 725.732 574.587C723.04 577.279 721.198 581.388 720.206 586.914L715.53 616.669L778.016 618.369L774.616 638.986L711.917 640.473L701.928 703.172H675.573Z" fill="black"/>
<path d="M792.427 703.172L811.981 580.538C813.539 571.186 816.302 564.031 820.27 559.072C824.379 554.112 829.196 550.712 834.722 548.87C840.248 547.028 845.845 546.178 851.512 546.319C863.273 546.319 874.325 546.532 884.668 546.957C895.012 547.382 905.284 547.949 915.486 548.657L912.086 570.549H854.913C849.529 570.549 845.42 571.895 842.586 574.587C839.894 577.279 838.052 581.388 837.06 586.914L832.384 616.669L894.87 618.369L891.469 638.986L828.771 640.473L818.782 703.172H792.427Z" fill="black"/>
<path d="M947.913 703.172L968.954 569.911H923.684L927.509 546.319H1044.4L1040.58 569.911H995.309L974.268 703.172H947.913Z" fill="black"/>
<path d="M1040.66 703.17L1065.53 546.317H1127.17C1134.54 546.317 1141.12 547.522 1146.93 549.931C1152.88 552.198 1157.63 556.236 1161.17 562.045C1164.72 567.713 1166.49 575.718 1166.49 586.062C1166.49 588.187 1166.27 590.809 1165.85 593.926C1165.42 596.901 1165 599.593 1164.57 602.002C1163.16 611.637 1160.75 619.643 1157.35 626.019C1154.09 632.253 1150.19 637.213 1145.66 640.896C1141.12 644.58 1136.24 647.202 1130.99 648.76C1125.75 650.319 1120.51 651.098 1115.27 651.098C1108.46 651.098 1101.45 650.744 1094.22 650.036C1087 649.327 1080.9 648.619 1075.95 647.91L1067.02 703.17H1040.66ZM1078.92 627.507H1112.08C1116.47 627.507 1120.44 626.586 1123.98 624.744C1127.66 622.76 1130.71 619.714 1133.12 615.605C1135.67 611.354 1137.44 605.899 1138.43 599.239C1138.72 597.397 1139 595.414 1139.28 593.288C1139.57 591.163 1139.71 589.604 1139.71 588.612C1139.71 581.669 1138.15 576.852 1135.03 574.16C1132.06 571.326 1127.73 569.909 1122.07 569.909H1088.06L1078.92 627.507Z" fill="black"/>
<path d="M1149.86 703.17L1226.37 546.317H1259.53L1285.03 703.17H1257.83L1251.87 666.188H1194.92L1177.06 703.17H1149.86ZM1204.9 642.597H1249.32L1239.12 569.059L1204.9 642.597Z" fill="black"/>
<path d="M1358.5 704.445C1341.64 704.445 1329.24 699.911 1321.31 690.843C1313.37 681.774 1309.41 669.022 1309.41 652.586C1309.41 647.485 1309.62 642.172 1310.04 636.646C1310.61 631.12 1311.32 625.665 1312.17 620.28C1314.72 603.844 1318.62 590.029 1323.86 578.836C1329.1 567.642 1336.11 559.211 1344.9 553.544C1353.68 547.876 1364.59 545.042 1377.63 545.042C1389.53 545.042 1399.52 545.963 1407.6 547.805C1415.67 549.506 1422.26 551.206 1427.36 552.906L1423.96 573.522C1417.59 572.105 1410.86 570.972 1403.77 570.122C1396.69 569.13 1389.46 568.634 1382.09 568.634C1376 568.634 1370.62 569.484 1365.94 571.184C1361.41 572.885 1357.37 575.86 1353.83 580.111C1350.43 584.22 1347.45 589.958 1344.9 597.326C1342.35 604.694 1340.15 614.046 1338.31 625.381C1337.46 630.199 1336.75 635.016 1336.19 639.834C1335.76 644.651 1335.55 648.973 1335.55 652.799C1335.55 662.575 1337.74 669.731 1342.14 674.265C1346.67 678.657 1354.46 680.853 1365.52 680.853C1375.29 680.853 1383.23 680.641 1389.32 680.216C1395.41 679.649 1401.43 678.941 1407.39 678.09L1403.99 698.707C1397.04 700.974 1389.53 702.461 1381.46 703.17C1373.52 704.02 1365.87 704.445 1358.5 704.445Z" fill="black"/>
<path d="M1427.96 703.171L1452.83 546.312H1479.19L1468.77 612.627L1531.38 546.312H1557.75L1490.53 624.831L1538.61 703.171H1512.49L1465.26 634.726L1454.32 703.171H1427.96Z" fill="black"/>
<path fill-rule="evenodd" clip-rule="evenodd" d="M963.857 234.99C974.958 173.458 1030.42 137.944 1079.37 138.568L1200.92 138.532C1253.97 139.11 1291.85 182.058 1285.71 234.953L1270.05 351.147C1258.95 412.679 1203.49 448.193 1154.54 447.569L1032.32 447.567C979.317 446.949 941.471 404.017 947.616 351.147L963.857 234.99Z" fill="black"/>
<path fill-rule="evenodd" clip-rule="evenodd" d="M1276.49 303.328H1141.36C1139.42 314.05 1129.76 320.238 1121.23 320.128L1104.98 447.568L1083.59 447.568L1099.94 320.128C1090.7 320.02 1084.1 312.539 1085.18 303.328H954.302L957.092 283.375C971.585 283.235 1008.29 283.089 1088.01 283.089C1089.94 272.367 1099.6 266.179 1108.13 266.287L1125.01 138.555L1145.52 138.549L1129.31 266.281C1138.55 266.382 1145.16 273.867 1144.09 283.083H1279.22L1276.49 303.328Z" fill="white"/>
<path fill-rule="evenodd" clip-rule="evenodd" d="M1279.22 283.083L1284.72 242.266C1278.02 226.12 1268.49 213.932 1257.08 215.918C1235.28 219.708 1216.63 269.703 1212.26 281.437C1212.06 281.974 1211.85 282.523 1211.64 283.083H1234.68C1236.16 279.69 1237.65 276.305 1239.14 272.932C1244.14 261.675 1249.98 251.902 1256.02 251.168C1262.68 250.358 1269.35 264.459 1272.31 276.13C1272.71 277.694 1272.95 279.282 1273.16 280.664C1273.3 281.585 1273.43 282.414 1273.58 283.083H1279.22ZM1225.95 303.329H1203.83C1197.09 319.947 1188.36 339.028 1178.34 352.757L1178 353.224C1175.38 356.829 1172.29 361.081 1167.59 361.56C1163.92 361.931 1161.03 358.331 1158.89 355.657L1158.89 355.654C1154.78 350.52 1151.35 344.936 1148.35 339.092C1144.03 330.685 1140.07 322.117 1136.32 313.46C1132.27 317.833 1126.53 320.196 1121.23 320.128L1120.29 327.501C1126.6 342.671 1130.56 351.3 1136.57 363.013C1140.67 370.998 1145.13 378.052 1149.51 383.464C1153.8 388.755 1158.47 393.038 1162.88 394.479C1167.18 395.884 1173.06 394.609 1177.19 391.794C1180.57 389.49 1184.38 385.131 1187.92 380.276C1191.55 375.302 1195.28 369.269 1198.49 363.038C1208.49 343.659 1217.28 323.484 1225.95 303.329ZM1096.69 269.835C1093.12 261.672 1089.37 253.593 1085.3 245.664C1085.17 245.404 1085.01 245.098 1084.84 244.753L1084.79 244.667C1081.83 238.804 1073.38 222.092 1065.62 223.252C1062.24 223.747 1059.92 226.212 1057.84 228.724C1045.69 243.406 1037.03 263.613 1029.21 283.122C1021.06 283.133 1013.68 283.145 1007 283.159C1015.94 262.317 1025.09 241.218 1035.15 221.719C1038.37 215.487 1042.09 209.455 1045.72 204.48C1049.26 199.625 1053.08 195.267 1056.46 192.962C1060.59 190.147 1066.5 188.909 1070.8 190.314C1075.22 191.755 1079.85 196.001 1084.14 201.292C1088.52 206.704 1092.98 213.758 1097.08 221.743C1102.06 231.443 1105.63 239.027 1110.29 249.962L1108.13 266.287C1104.28 266.238 1100.19 267.475 1096.69 269.835ZM998.311 303.329H1021.11C1020.57 304.632 1020.03 305.92 1019.49 307.191C1009.2 331.351 991.832 369.367 975.431 372.219C964.16 374.18 955.011 361.881 948.334 346.016L954.302 303.329H959.619C960.118 304.881 960.82 307.619 961.547 310.475L961.571 310.57L961.578 310.601C964.543 322.272 969.831 337.779 976.483 336.97C982.523 336.235 988.581 325.376 993.577 314.119C995.159 310.556 996.735 306.956 998.311 303.329Z" fill="#63EEA9"/>
<path d="M686.789 796.719V792.38H693.175V754.965H680.567V766.672H675.573V750.626H717.163V766.672H712.169V754.965H699.807V792.38H706.193V796.719H686.789Z" fill="black"/>
<path d="M720.241 796.719V792.38H726.218V754.064H720.323V749.807H732.276V769.292L730.065 769.702C732.412 767.955 734.759 766.536 737.106 765.444C739.453 764.298 741.882 763.725 744.393 763.725C747.34 763.725 749.851 764.653 751.925 766.509C753.999 768.31 755.036 770.957 755.036 774.45V792.38H760.93V796.719H743.656V792.38H748.977V775.596C748.977 773.358 748.432 771.612 747.34 770.357C746.303 769.101 744.829 768.474 742.919 768.474C740.845 768.474 738.689 768.992 736.451 770.029C734.214 771.011 732.139 772.24 730.229 773.713L732.276 770.766V792.38H737.516V796.719H720.241Z" fill="black"/>
<path d="M782.174 797.701C778.791 797.701 775.707 796.992 772.923 795.572C770.194 794.153 768.011 792.161 766.374 789.596C764.791 787.031 763.999 784.056 763.999 780.672C763.999 777.179 764.763 774.177 766.292 771.666C767.82 769.101 769.867 767.136 772.432 765.772C774.997 764.353 777.863 763.643 781.028 763.643C784.303 763.643 787.114 764.325 789.461 765.69C791.862 767.054 793.691 768.992 794.946 771.503C796.202 774.013 796.829 776.961 796.829 780.345V781.9H769.321L769.403 778.134H790.853C790.853 776.006 790.416 774.204 789.543 772.731C788.724 771.203 787.578 770.056 786.104 769.292C784.631 768.474 782.939 768.064 781.028 768.064C779.009 768.064 777.18 768.555 775.543 769.538C773.906 770.466 772.596 771.83 771.613 773.631C770.685 775.378 770.221 777.507 770.221 780.017C770.221 782.692 770.713 785.011 771.695 786.976C772.678 788.886 774.042 790.387 775.789 791.479C777.59 792.516 779.637 793.035 781.929 793.035C784.385 793.035 786.65 792.543 788.724 791.561C790.798 790.578 792.599 789.35 794.128 787.877L796.256 791.561C794.782 793.253 792.872 794.699 790.525 795.9C788.178 797.101 785.395 797.701 782.174 797.701Z" fill="black"/>
<path d="M1300.83 765.8C1303.9 765.8 1306.65 766.481 1309.09 767.842C1311.58 769.147 1313.54 771.104 1314.96 773.713C1316.37 776.266 1317.08 779.329 1317.08 782.902C1317.08 786.589 1316.29 789.794 1314.7 792.517C1313.17 795.239 1311.07 797.338 1308.4 798.813C1305.8 800.231 1302.93 800.94 1299.81 800.94C1297.83 800.94 1295.93 800.628 1294.11 800.004C1292.35 799.38 1290.91 798.557 1289.77 797.536L1289.69 808.853H1296.24V813.362H1277.43V808.853H1283.48V771.161H1277.6V766.651H1289.35L1289.43 769.799C1291.08 768.495 1292.86 767.502 1294.79 766.821C1296.78 766.141 1298.79 765.8 1300.83 765.8ZM1298.7 796.26C1302.22 796.26 1305.06 795.154 1307.21 792.942C1309.43 790.673 1310.53 787.497 1310.53 783.413C1310.53 779.442 1309.45 776.322 1307.3 774.053C1305.2 771.785 1302.48 770.65 1299.13 770.65C1297.77 770.65 1296.18 770.934 1294.37 771.501C1292.61 772.068 1291.05 772.919 1289.69 774.053L1289.77 793.027C1291.08 794.048 1292.49 794.842 1294.03 795.409C1295.61 795.977 1297.17 796.26 1298.7 796.26Z" fill="black"/>
<path d="M1356.88 795.58V800.089H1346.07L1345.73 797.111C1343.92 798.472 1342.1 799.465 1340.29 800.089C1338.47 800.713 1336.43 801.025 1334.16 801.025C1330.76 801.025 1327.98 800.089 1325.82 798.217C1323.72 796.289 1322.67 793.906 1322.67 791.07C1322.67 787.44 1323.89 784.802 1326.33 783.157C1328.83 781.456 1332.09 780.605 1336.12 780.605C1339.01 780.605 1342.1 780.974 1345.39 781.711V778.223C1345.39 775.67 1344.68 773.742 1343.26 772.437C1341.9 771.132 1339.97 770.48 1337.48 770.48C1335.83 770.48 1333.93 770.764 1331.78 771.331C1329.68 771.841 1327.75 772.579 1325.99 773.543L1324.12 769.459C1325.99 768.268 1328.15 767.36 1330.59 766.736C1333.08 766.112 1335.41 765.8 1337.56 765.8C1341.93 765.8 1345.36 766.878 1347.86 769.034C1350.35 771.132 1351.6 773.997 1351.6 777.627V795.58H1356.88ZM1328.63 790.73C1328.63 792.488 1329.2 793.935 1330.33 795.069C1331.52 796.147 1333.11 796.686 1335.1 796.686C1338.44 796.686 1341.87 795.466 1345.39 793.027V785.37C1342.39 784.689 1339.44 784.349 1336.54 784.349C1334.27 784.349 1332.37 784.859 1330.84 785.88C1329.37 786.844 1328.63 788.461 1328.63 790.73Z" fill="black"/>
<path d="M1379.34 770.65C1375.71 770.65 1372.74 771.813 1370.41 774.139C1368.09 776.464 1366.92 779.414 1366.92 782.987C1366.92 786.844 1368.06 789.992 1370.33 792.431C1372.59 794.814 1375.54 796.005 1379.17 796.005C1381.9 796.005 1384.19 795.494 1386.07 794.473C1387.94 793.396 1389.75 791.864 1391.51 789.879L1394.15 793.708C1392.39 795.977 1390.21 797.763 1387.6 799.068C1384.99 800.316 1381.98 800.94 1378.58 800.94C1375.06 800.94 1371.91 800.174 1369.13 798.643C1366.41 797.111 1364.26 795.012 1362.67 792.346C1361.14 789.624 1360.37 786.561 1360.37 783.157C1360.37 779.754 1361.11 776.748 1362.58 774.139C1364.11 771.473 1366.21 769.402 1368.88 767.927C1371.55 766.453 1374.55 765.715 1377.9 765.715C1380.39 765.715 1382.61 766.169 1384.53 767.077C1386.46 767.984 1387.94 769.204 1388.96 770.735V766.481H1394.23V778.478H1389.47C1388.96 776.039 1387.8 774.139 1385.98 772.777C1384.17 771.359 1381.95 770.65 1379.34 770.65Z" fill="black"/>
<path d="M1477.02 795.58V800.089H1466.22L1465.88 797.111C1464.06 798.472 1462.25 799.465 1460.43 800.089C1458.62 800.713 1456.58 801.025 1454.31 801.025C1450.9 801.025 1448.12 800.089 1445.97 798.217C1443.87 796.289 1442.82 793.906 1442.82 791.07C1442.82 787.44 1444.04 784.802 1446.48 783.157C1448.98 781.456 1452.24 780.605 1456.26 780.605C1459.16 780.605 1462.25 780.974 1465.54 781.711V778.223C1465.54 775.67 1464.83 773.742 1463.41 772.437C1462.05 771.132 1460.12 770.48 1457.63 770.48C1455.98 770.48 1454.08 770.764 1451.93 771.331C1449.83 771.841 1447.9 772.579 1446.14 773.543L1444.27 769.459C1446.14 768.268 1448.3 767.36 1450.73 766.736C1453.23 766.112 1455.56 765.8 1457.71 765.8C1462.08 765.8 1465.51 766.878 1468.01 769.034C1470.5 771.132 1471.75 773.997 1471.75 777.627V795.58H1477.02ZM1448.78 790.73C1448.78 792.488 1449.34 793.935 1450.48 795.069C1451.67 796.147 1453.26 796.686 1455.24 796.686C1458.59 796.686 1462.02 795.466 1465.54 793.027V785.37C1462.53 784.689 1459.58 784.349 1456.69 784.349C1454.42 784.349 1452.52 784.859 1450.99 785.88C1449.51 786.844 1448.78 788.461 1448.78 790.73Z" fill="black"/>
<path d="M1515.49 766.651V771.161V800.855C1515.49 806.016 1513.93 809.845 1510.81 812.341C1507.69 814.837 1503.52 816.085 1498.3 816.085C1494.33 816.085 1490.13 815.404 1485.71 814.043L1486.98 809.108C1491.3 810.412 1495.01 811.065 1498.13 811.065C1501.65 811.065 1504.37 810.242 1506.3 808.597C1508.23 807.009 1509.19 804.57 1509.19 801.28V796.686C1507.6 797.877 1505.82 798.784 1503.83 799.408C1501.9 800.032 1499.97 800.344 1498.05 800.344C1494.87 800.344 1491.98 799.664 1489.37 798.302C1486.76 796.884 1484.69 794.871 1483.16 792.261C1481.68 789.652 1480.94 786.589 1480.94 783.072C1480.94 779.442 1481.68 776.351 1483.16 773.798C1484.63 771.189 1486.64 769.232 1489.2 767.927C1491.81 766.566 1494.7 765.885 1497.87 765.885C1499.8 765.885 1501.79 766.226 1503.83 766.906C1505.87 767.53 1507.63 768.438 1509.11 769.629V766.651H1515.49ZM1487.49 783.498C1487.49 787.298 1488.6 790.276 1490.81 792.431C1493.03 794.587 1495.86 795.665 1499.32 795.665C1500.97 795.665 1502.64 795.381 1504.34 794.814C1506.1 794.247 1507.72 793.424 1509.19 792.346L1509.11 773.968C1507.46 772.891 1505.7 772.04 1503.83 771.416C1502.02 770.792 1500.29 770.48 1498.64 770.48C1495.29 770.48 1492.6 771.643 1490.56 773.968C1488.52 776.237 1487.49 779.414 1487.49 783.498Z" fill="black"/>
<path d="M1557.75 784.689H1530.18C1530.58 788.262 1531.85 791.099 1534.01 793.197C1536.17 795.239 1538.92 796.26 1542.26 796.26C1546.91 796.26 1551.14 794.473 1554.94 790.9L1557.15 794.729C1555.51 796.657 1553.44 798.217 1550.94 799.408C1548.45 800.543 1545.64 801.11 1542.52 801.11C1539 801.11 1535.8 800.373 1532.9 798.898C1530.01 797.423 1527.74 795.353 1526.1 792.687C1524.45 789.964 1523.63 786.873 1523.63 783.413C1523.63 779.896 1524.4 776.805 1525.93 774.139C1527.52 771.416 1529.64 769.346 1532.31 767.927C1535.03 766.453 1538.04 765.715 1541.33 765.715C1546.43 765.715 1550.43 767.275 1553.32 770.395C1556.27 773.515 1557.75 777.74 1557.75 783.072V784.689ZM1551.54 780.775C1551.54 777.542 1550.57 774.989 1548.64 773.118C1546.77 771.246 1544.33 770.31 1541.33 770.31C1538.38 770.31 1535.88 771.246 1533.84 773.118C1531.8 774.989 1530.58 777.542 1530.18 780.775H1551.54Z" fill="black"/>
<path d="M826.044 795.579H832.68V756.696H826.044V752.187H866.969V766.736H861.609V756.696H839.657V772.777H854.121H857.695V777.627H854.121H839.657V795.579H846.294V800.089H826.044V795.579Z" fill="black"/>
<path d="M889.005 801.11C885.431 801.11 882.283 800.372 879.561 798.898C876.838 797.423 874.711 795.352 873.179 792.686C871.705 789.964 870.967 786.844 870.967 783.327C870.967 779.81 871.705 776.719 873.179 774.053C874.711 771.387 876.838 769.345 879.561 767.927C882.283 766.452 885.431 765.715 889.005 765.715C892.578 765.715 895.727 766.452 898.449 767.927C901.229 769.345 903.384 771.387 904.916 774.053C906.447 776.719 907.213 779.782 907.213 783.242C907.213 786.759 906.447 789.879 904.916 792.601C903.384 795.324 901.229 797.423 898.449 798.898C895.727 800.372 892.578 801.11 889.005 801.11ZM889.005 796.175C892.522 796.175 895.358 795.012 897.513 792.686C899.669 790.304 900.746 787.156 900.746 783.242C900.746 779.442 899.669 776.407 897.513 774.138C895.358 771.813 892.522 770.65 889.005 770.65C885.488 770.65 882.68 771.813 880.582 774.138C878.483 776.464 877.434 779.527 877.434 783.327C877.434 787.184 878.483 790.304 880.582 792.686C882.737 795.012 885.545 796.175 889.005 796.175Z" fill="black"/>
<path d="M933.553 766.226C935.709 766.226 937.978 766.793 940.36 767.927L938.829 773.628C936.9 772.38 934.943 771.756 932.958 771.756C930.689 771.756 928.789 772.692 927.257 774.564C925.782 776.379 925.045 778.903 925.045 782.136L924.96 795.579H930.916V800.089H912.283V795.579H918.749V771.16H912.283V766.651H924.96V772.777C926.775 768.409 929.64 766.226 933.553 766.226Z" fill="black"/>
<path d="M959.056 800.089C952.59 800.089 949.357 796.799 949.357 790.219V771.16H943.827V766.651H949.357V755.25L955.653 752.782V766.651H964.502V771.16H955.653V789.879C955.653 791.977 955.993 793.452 956.674 794.303C957.355 795.154 958.518 795.579 960.163 795.579H965.268V800.089H959.056Z" fill="black"/>
<path d="M991.965 766.226C994.121 766.226 996.389 766.793 998.772 767.927L997.24 773.628C995.312 772.38 993.355 771.756 991.369 771.756C989.101 771.756 987.2 772.692 985.669 774.564C984.194 776.379 983.457 778.903 983.457 782.136L983.372 795.579H989.327V800.089H970.694V795.579H977.161V771.16H970.694V766.651H983.372V772.777C985.187 768.409 988.051 766.226 991.965 766.226Z" fill="black"/>
<path d="M1038.06 795.579V800.089H1027.25L1026.91 797.111C1025.1 798.472 1023.28 799.465 1021.47 800.089C1019.65 800.713 1017.61 801.025 1015.34 801.025C1011.94 801.025 1009.16 800.089 1007 798.217C1004.9 796.288 1003.85 793.906 1003.85 791.07C1003.85 787.44 1005.07 784.802 1007.51 783.157C1010.01 781.455 1013.27 780.605 1017.3 780.605C1020.19 780.605 1023.28 780.973 1026.57 781.711V778.222C1026.57 775.67 1025.86 773.741 1024.44 772.437C1023.08 771.132 1021.16 770.48 1018.66 770.48C1017.01 770.48 1015.11 770.763 1012.96 771.331C1010.86 771.841 1008.93 772.578 1007.17 773.543L1005.3 769.459C1007.17 768.268 1009.33 767.36 1011.77 766.736C1014.26 766.112 1016.59 765.8 1018.74 765.8C1023.11 765.8 1026.54 766.878 1029.04 769.033C1031.54 771.132 1032.78 773.996 1032.78 777.627V795.579H1038.06ZM1009.81 790.73C1009.81 792.488 1010.38 793.934 1011.51 795.069C1012.7 796.146 1014.29 796.685 1016.28 796.685C1019.62 796.685 1023.06 795.466 1026.57 793.027V785.369C1023.57 784.689 1020.62 784.348 1017.72 784.348C1015.45 784.348 1013.55 784.859 1012.02 785.88C1010.55 786.844 1009.81 788.461 1009.81 790.73Z" fill="black"/>
<path d="M1083.16 795.579V800.089H1065.2V795.579H1070.73V778.137C1070.73 775.812 1070.17 773.996 1069.03 772.692C1067.9 771.387 1066.34 770.735 1064.35 770.735C1062.71 770.735 1061.04 771.047 1059.33 771.671C1057.69 772.238 1055.87 773.117 1053.89 774.308V795.579H1059.93V800.089H1041.21V795.579H1047.68V771.16H1041.21V766.651H1053.89V769.969C1058.31 767.19 1062.34 765.8 1065.97 765.8C1069.15 765.8 1071.76 766.793 1073.8 768.778C1075.9 770.707 1076.95 773.429 1076.95 776.946V795.579H1083.16Z" fill="black"/>
<path d="M1105.62 802.082H1112.25V763.199H1105.62V758.689H1146.54V773.239H1141.18V763.199H1119.23V779.28H1133.7H1137.27V784.129H1133.7H1119.23V802.082H1125.87V806.591H1105.62V802.082Z" fill="black"/>
<path d="M1152.56 802.082H1159.2V763.199H1152.56V758.689H1193.49V773.239H1188.13V763.199H1166.17V779.28H1180.64H1184.21V784.129H1180.64H1166.17V802.082H1172.81V806.591H1152.56V802.082Z" fill="black"/>
<path d="M1399.34 795.58H1405.64V755.761H1399.51V751.336H1411.93V782.222V783.668V795.58H1417.38V800.089H1399.34V795.58Z" fill="black"/>
<path fill-rule="evenodd" clip-rule="evenodd" d="M1411.93 783.661L1428.35 800.082H1438.14V795.573H1431.5L1418.4 782.64L1411.93 782.641L1411.93 783.661Z" fill="black"/>
<path fill-rule="evenodd" clip-rule="evenodd" d="M1411.93 781.619L1428.21 766.638H1438V771.148H1431.36L1418.4 782.64L1411.93 782.639L1411.93 781.619Z" fill="black"/>
<path d="M1210.68 806.583V802.074H1217.32V763.198H1204.22V775.363H1199.03V758.689H1242.24V775.363H1237.05V763.198H1224.21V802.074H1230.84V806.583H1210.68Z" fill="black"/>
</svg>
