<svg width="1314" height="311" viewBox="0 0 1314 311" fill="none" xmlns="http://www.w3.org/2000/svg">
<path d="M431.711 233.928L451.264 111.294C452.823 101.942 455.586 94.787 459.553 89.8278C463.662 84.8686 468.48 81.468 474.006 79.6261C479.532 77.7841 485.129 76.9339 490.796 77.0756C502.557 77.0756 513.609 77.2881 523.952 77.7132C534.296 78.1383 544.568 78.7051 554.77 79.4135L551.369 101.305H494.197C488.813 101.305 484.704 102.651 481.87 105.343C479.178 108.035 477.336 112.144 476.344 117.67L471.668 147.425L534.154 149.126L530.753 169.742L468.055 171.23L458.066 233.928H431.711Z" fill="black"/>
<path d="M548.565 233.928L568.118 111.294C569.677 101.942 572.44 94.787 576.407 89.8278C580.516 84.8686 585.334 81.468 590.86 79.6261C596.386 77.7841 601.983 76.9339 607.65 77.0756C619.411 77.0756 630.463 77.2881 640.806 77.7132C651.149 78.1383 661.422 78.7051 671.624 79.4135L668.223 101.305H611.051C605.666 101.305 601.557 102.651 598.724 105.343C596.031 108.035 594.189 112.144 593.198 117.67L588.522 147.425L651.008 149.126L647.607 169.742L584.909 171.23L574.919 233.928H548.565Z" fill="black"/>
<path d="M704.051 233.928L725.092 100.667H679.821L683.647 77.0756H800.543L796.717 100.667H751.446L730.405 233.928H704.051Z" fill="black"/>
<path d="M796.802 233.926L821.669 77.0738H883.305C890.673 77.0738 897.261 78.2782 903.071 80.6869C909.022 82.954 913.769 86.9922 917.311 92.8016C920.853 98.4692 922.624 106.475 922.624 116.818C922.624 118.944 922.412 121.565 921.987 124.682C921.562 127.658 921.137 130.35 920.711 132.759C919.295 142.394 916.886 150.399 913.485 156.775C910.226 163.01 906.33 167.969 901.796 171.653C897.262 175.337 892.373 177.958 887.131 179.517C881.888 181.075 876.645 181.855 871.403 181.855C864.602 181.855 857.588 181.5 850.362 180.792C843.135 180.083 837.043 179.375 832.083 178.667L823.157 233.926H796.802ZM835.059 158.263H868.215C872.607 158.263 876.575 157.342 880.117 155.5C883.801 153.516 886.847 150.47 889.256 146.361C891.806 142.11 893.578 136.655 894.569 129.996C894.853 128.154 895.136 126.17 895.42 124.045C895.703 121.919 895.845 120.361 895.845 119.369C895.845 112.426 894.286 107.608 891.169 104.916C888.193 102.082 883.872 100.665 878.204 100.665H844.198L835.059 158.263Z" fill="black"/>
<path d="M905.995 233.926L982.508 77.0738H1015.66L1041.17 233.926H1013.96L1008.01 196.945H951.053L933.2 233.926H905.995ZM961.042 173.353H1005.46L995.261 99.8153L961.042 173.353Z" fill="black"/>
<path d="M1114.64 235.201C1097.78 235.201 1085.38 230.667 1077.45 221.599C1069.51 212.531 1065.54 199.779 1065.54 183.342C1065.54 178.241 1065.76 172.928 1066.18 167.402C1066.75 161.876 1067.46 156.421 1068.31 151.037C1070.86 134.601 1074.75 120.786 1080 109.592C1085.24 98.3984 1092.25 89.9677 1101.04 84.3001C1109.82 78.6324 1120.73 75.7986 1133.77 75.7986C1145.67 75.7986 1155.66 76.7196 1163.74 78.5616C1171.81 80.2619 1178.4 81.9622 1183.5 83.6625L1180.1 104.279C1173.73 102.862 1166.99 101.728 1159.91 100.878C1152.83 99.8861 1145.6 99.3902 1138.23 99.3902C1132.14 99.3902 1126.75 100.24 1122.08 101.941C1117.54 103.641 1113.51 106.616 1109.96 110.867C1106.56 114.976 1103.59 120.715 1101.04 128.083C1098.49 135.451 1096.29 144.802 1094.45 156.138C1093.6 160.955 1092.89 165.773 1092.32 170.59C1091.9 175.408 1091.69 179.729 1091.69 183.555C1091.69 193.332 1093.88 200.487 1098.27 205.021C1102.81 209.414 1110.6 211.61 1121.65 211.61C1131.43 211.61 1139.37 211.397 1145.46 210.972C1151.55 210.405 1157.57 209.697 1163.52 208.847L1160.12 229.463C1153.18 231.73 1145.67 233.218 1137.59 233.926C1129.66 234.776 1122.01 235.201 1114.64 235.201Z" fill="black"/>
<path d="M1184.1 233.928L1208.97 77.0686H1235.33L1224.91 143.383L1287.52 77.0686H1313.89L1246.67 155.588L1294.75 233.928H1268.62L1221.39 165.483L1210.46 233.928H1184.1Z" fill="black"/>
<path fill-rule="evenodd" clip-rule="evenodd" d="M17.0674 97.435C28.1679 35.9035 83.6271 0.389241 132.576 1.01305L254.133 0.977539C307.179 1.5553 345.064 44.5029 338.916 97.3978L323.257 213.592C312.157 275.124 256.697 310.638 207.749 310.014L85.5347 310.012C32.5276 309.394 -5.31859 266.462 0.826606 213.592L17.0674 97.435Z" fill="black"/>
<path fill-rule="evenodd" clip-rule="evenodd" d="M329.701 165.773H194.567C192.632 176.495 182.969 182.683 174.441 182.573L158.189 310.013L136.797 310.013L153.145 182.573C143.91 182.465 137.315 174.984 138.385 165.773H7.51245L10.3022 145.82C24.7949 145.68 61.4982 145.534 141.215 145.534C143.15 134.812 152.813 128.624 161.342 128.732L178.215 0.99989L198.733 0.993896L182.523 128.726C191.765 128.828 198.366 136.312 197.296 145.528H332.429L329.701 165.773Z" fill="white"/>
<path fill-rule="evenodd" clip-rule="evenodd" d="M332.43 145.528L337.93 104.711C331.227 88.5655 321.705 76.3775 310.287 78.3631C288.489 82.1532 269.842 132.148 265.465 143.882C265.265 144.419 265.061 144.968 264.851 145.528H287.895C289.372 142.135 290.855 138.75 292.352 135.377C297.348 124.12 303.194 114.348 309.235 113.613C315.887 112.803 322.557 126.904 325.522 138.575C325.919 140.139 326.161 141.727 326.372 143.109C326.512 144.03 326.638 144.859 326.787 145.528H332.43ZM279.161 165.774H257.037C250.304 182.392 241.569 201.473 231.554 215.202L231.214 215.669C228.593 219.274 225.502 223.526 220.797 224.005C217.127 224.376 214.243 220.776 212.102 218.102L212.099 218.099C207.994 212.965 204.559 207.381 201.557 201.537C197.24 193.13 193.284 184.563 189.528 175.905C185.479 180.278 179.741 182.641 174.441 182.573L173.501 189.946C179.81 205.116 183.766 213.745 189.781 225.458C193.882 233.443 198.339 240.497 202.722 245.909C207.006 251.201 211.677 255.483 216.09 256.924C220.395 258.329 226.267 257.054 230.396 254.239C233.775 251.935 237.592 247.576 241.134 242.721C244.763 237.747 248.491 231.714 251.705 225.483C261.7 206.104 270.486 185.929 279.161 165.774ZM149.902 132.281C146.335 124.117 142.582 116.039 138.51 108.109C138.377 107.849 138.222 107.544 138.047 107.198L138.004 107.113C135.041 101.249 126.594 84.5373 118.834 85.6968C115.447 86.1924 113.129 88.6569 111.049 91.1689C98.8985 105.851 90.2382 126.058 82.4242 145.567C74.2711 145.578 66.8853 145.59 60.2053 145.604C69.1549 124.763 78.3046 103.663 88.3623 84.1637C91.5763 77.9321 95.3042 71.8996 98.9334 66.9251C102.475 62.0703 106.292 57.7117 109.671 55.4072C113.8 52.5921 119.71 51.3536 124.015 52.7587C128.428 54.1998 133.061 58.4459 137.346 63.7374C141.728 69.1492 146.186 76.2027 150.286 84.1877C155.267 93.8877 158.836 101.472 163.499 112.407L161.342 128.732C157.488 128.683 153.402 129.92 149.902 132.281ZM51.5211 165.774H74.3161C73.7769 167.077 73.2371 168.365 72.696 169.636C62.4055 193.796 45.0418 231.813 28.6408 234.664C17.37 236.625 8.22125 224.327 1.54419 208.461L7.51246 165.774H12.8289C13.3284 167.326 14.0305 170.064 14.757 172.92L14.7815 173.015L14.7886 173.046C17.7531 184.717 23.0409 200.224 29.6935 199.415C35.7331 198.68 41.791 187.822 46.7875 176.564C48.3689 173.001 49.9455 169.401 51.5211 165.774Z" fill="#63EEA9"/>
</svg>
