<svg width="2233" height="932" viewBox="0 0 2233 932" fill="none" xmlns="http://www.w3.org/2000/svg">
<rect y="0.249023" width="2232.98" height="931.099" fill="white"/>
<path d="M686.216 796.762V792.423H692.602V755.008H679.994V766.715H675V750.669H716.59V766.715H711.596V755.008H699.234V792.423H705.619V796.762H686.216Z" fill="black"/>
<path d="M719.668 796.762V792.423H725.644V754.107H719.75V749.85H731.703V769.335L729.492 769.745C731.839 767.998 734.186 766.579 736.533 765.487C738.88 764.341 741.309 763.768 743.819 763.768C746.767 763.768 749.277 764.696 751.352 766.552C753.426 768.353 754.463 771 754.463 774.493V792.423H760.357V796.762H743.083V792.423H748.404V775.639C748.404 773.401 747.858 771.655 746.767 770.399C745.73 769.144 744.256 768.516 742.346 768.516C740.272 768.516 738.116 769.035 735.878 770.072C733.64 771.054 731.566 772.282 729.656 773.756L731.703 770.809V792.423H736.942V796.762H719.668Z" fill="black"/>
<path d="M781.601 797.744C778.217 797.744 775.133 797.035 772.35 795.615C769.621 794.196 767.438 792.204 765.8 789.639C764.217 787.074 763.426 784.099 763.426 780.715C763.426 777.222 764.19 774.22 765.718 771.709C767.247 769.144 769.293 767.179 771.859 765.815C774.424 764.396 777.289 763.686 780.455 763.686C783.73 763.686 786.541 764.368 788.888 765.733C791.289 767.097 793.118 769.035 794.373 771.546C795.628 774.056 796.256 777.004 796.256 780.388V781.943H768.748L768.83 778.177H790.279C790.279 776.049 789.843 774.247 788.97 772.774C788.151 771.245 787.005 770.099 785.531 769.335C784.057 768.516 782.365 768.107 780.455 768.107C778.436 768.107 776.607 768.598 774.97 769.581C773.332 770.509 772.022 771.873 771.04 773.674C770.112 775.421 769.648 777.549 769.648 780.06C769.648 782.735 770.139 785.054 771.122 787.019C772.104 788.929 773.469 790.43 775.215 791.522C777.017 792.559 779.063 793.077 781.356 793.077C783.812 793.077 786.077 792.586 788.151 791.604C790.225 790.621 792.026 789.393 793.554 787.92L795.683 791.604C794.209 793.296 792.299 794.742 789.952 795.943C787.605 797.144 784.821 797.744 781.601 797.744Z" fill="black"/>
<path d="M1300.26 765.843C1303.32 765.843 1306.07 766.524 1308.51 767.885C1311.01 769.19 1312.96 771.147 1314.38 773.756C1315.8 776.309 1316.51 779.372 1316.51 782.945C1316.51 786.632 1315.72 789.837 1314.13 792.559C1312.6 795.282 1310.5 797.381 1307.83 798.856C1305.22 800.274 1302.36 800.983 1299.24 800.983C1297.25 800.983 1295.35 800.671 1293.54 800.047C1291.78 799.423 1290.33 798.6 1289.2 797.579L1289.11 808.895H1295.66V813.405H1276.86V808.895H1282.9V771.204H1277.03V766.694H1288.77L1288.86 769.842C1290.5 768.538 1292.29 767.545 1294.22 766.864C1296.2 766.184 1298.22 765.843 1300.26 765.843ZM1298.13 796.303C1301.65 796.303 1304.48 795.197 1306.64 792.985C1308.85 790.716 1309.96 787.54 1309.96 783.456C1309.96 779.485 1308.88 776.365 1306.73 774.096C1304.63 771.827 1301.9 770.693 1298.56 770.693C1297.2 770.693 1295.61 770.977 1293.79 771.544C1292.03 772.111 1290.47 772.962 1289.11 774.096L1289.2 793.07C1290.5 794.091 1291.92 794.885 1293.45 795.452C1295.04 796.02 1296.6 796.303 1298.13 796.303Z" fill="black"/>
<path d="M1356.3 795.622V800.132H1345.5L1345.16 797.154C1343.34 798.515 1341.53 799.508 1339.71 800.132C1337.9 800.756 1335.86 801.068 1333.59 801.068C1330.18 801.068 1327.41 800.132 1325.25 798.26C1323.15 796.331 1322.1 793.949 1322.1 791.113C1322.1 787.483 1323.32 784.845 1325.76 783.2C1328.26 781.499 1331.52 780.648 1335.54 780.648C1338.44 780.648 1341.53 781.016 1344.82 781.754V778.265C1344.82 775.713 1344.11 773.784 1342.69 772.48C1341.33 771.175 1339.4 770.523 1336.91 770.523C1335.26 770.523 1333.36 770.806 1331.21 771.374C1329.11 771.884 1327.18 772.622 1325.42 773.586L1323.55 769.502C1325.42 768.311 1327.58 767.403 1330.01 766.779C1332.51 766.155 1334.84 765.843 1336.99 765.843C1341.36 765.843 1344.79 766.921 1347.29 769.076C1349.78 771.175 1351.03 774.04 1351.03 777.67V795.622H1356.3ZM1328.06 790.773C1328.06 792.531 1328.62 793.978 1329.76 795.112C1330.95 796.19 1332.54 796.729 1334.52 796.729C1337.87 796.729 1341.3 795.509 1344.82 793.07V785.412C1341.81 784.732 1338.86 784.391 1335.97 784.391C1333.7 784.391 1331.8 784.902 1330.27 785.923C1328.79 786.887 1328.06 788.504 1328.06 790.773Z" fill="black"/>
<path d="M1378.77 770.693C1375.14 770.693 1372.16 771.856 1369.84 774.181C1367.51 776.507 1366.35 779.457 1366.35 783.03C1366.35 786.887 1367.48 790.035 1369.75 792.474C1372.02 794.857 1374.97 796.048 1378.6 796.048C1381.32 796.048 1383.62 795.537 1385.49 794.516C1387.37 793.439 1389.18 791.907 1390.94 789.922L1393.58 793.751C1391.82 796.02 1389.63 797.806 1387.02 799.111C1384.42 800.359 1381.41 800.983 1378.01 800.983C1374.49 800.983 1371.34 800.217 1368.56 798.685C1365.84 797.154 1363.68 795.055 1362.1 792.389C1360.56 789.667 1359.8 786.604 1359.8 783.2C1359.8 779.797 1360.54 776.791 1362.01 774.181C1363.54 771.516 1365.64 769.445 1368.31 767.97C1370.97 766.496 1373.98 765.758 1377.33 765.758C1379.82 765.758 1382.03 766.212 1383.96 767.12C1385.89 768.027 1387.37 769.247 1388.39 770.778V766.524H1393.66V778.521H1388.9C1388.39 776.082 1387.22 774.181 1385.41 772.82C1383.59 771.402 1381.38 770.693 1378.77 770.693Z" fill="black"/>
<path d="M1476.45 795.622V800.132H1465.65L1465.31 797.154C1463.49 798.515 1461.68 799.508 1459.86 800.132C1458.05 800.756 1456 801.068 1453.73 801.068C1450.33 801.068 1447.55 800.132 1445.4 798.26C1443.3 796.331 1442.25 793.949 1442.25 791.113C1442.25 787.483 1443.47 784.845 1445.91 783.2C1448.4 781.499 1451.66 780.648 1455.69 780.648C1458.58 780.648 1461.68 781.016 1464.97 781.754V778.265C1464.97 775.713 1464.26 773.784 1462.84 772.48C1461.48 771.175 1459.55 770.523 1457.05 770.523C1455.41 770.523 1453.51 770.806 1451.35 771.374C1449.25 771.884 1447.33 772.622 1445.57 773.586L1443.69 769.502C1445.57 768.311 1447.72 767.403 1450.16 766.779C1452.66 766.155 1454.98 765.843 1457.14 765.843C1461.51 765.843 1464.94 766.921 1467.43 769.076C1469.93 771.175 1471.18 774.04 1471.18 777.67V795.622H1476.45ZM1448.2 790.773C1448.2 792.531 1448.77 793.978 1449.91 795.112C1451.1 796.19 1452.69 796.729 1454.67 796.729C1458.02 796.729 1461.45 795.509 1464.97 793.07V785.412C1461.96 784.732 1459.01 784.391 1456.12 784.391C1453.85 784.391 1451.95 784.902 1450.42 785.923C1448.94 786.887 1448.2 788.504 1448.2 790.773Z" fill="black"/>
<path d="M1514.91 766.694V800.898C1514.91 806.059 1513.35 809.888 1510.23 812.384C1507.11 814.88 1502.95 816.128 1497.73 816.128C1493.76 816.128 1489.56 815.447 1485.14 814.086L1486.41 809.151C1490.72 810.455 1494.44 811.108 1497.56 811.108C1501.07 811.108 1503.8 810.285 1505.73 808.64C1507.65 807.052 1508.62 804.613 1508.62 801.323V796.729C1507.03 797.92 1505.24 798.827 1503.26 799.451C1501.33 800.075 1499.4 800.387 1497.47 800.387C1494.3 800.387 1491.4 799.706 1488.79 798.345C1486.18 796.927 1484.11 794.913 1482.58 792.304C1481.11 789.695 1480.37 786.632 1480.37 783.115C1480.37 779.485 1481.11 776.394 1482.58 773.841C1484.06 771.232 1486.07 769.275 1488.62 767.97C1491.23 766.609 1494.13 765.928 1497.3 765.928C1499.23 765.928 1501.22 766.269 1503.26 766.949C1505.3 767.573 1507.06 768.481 1508.53 769.672V766.694H1514.91ZM1486.92 783.541C1486.92 787.341 1488.03 790.319 1490.24 792.474C1492.45 794.63 1495.29 795.708 1498.75 795.708C1500.39 795.708 1502.07 795.424 1503.77 794.857C1505.53 794.289 1507.14 793.467 1508.62 792.389L1508.53 774.011C1506.89 772.934 1505.13 772.083 1503.26 771.459C1501.44 770.835 1499.71 770.523 1498.07 770.523C1494.72 770.523 1492.03 771.686 1489.98 774.011C1487.94 776.28 1486.92 779.457 1486.92 783.541Z" fill="black"/>
<path d="M1557.18 784.732H1529.61C1530.01 788.305 1531.28 791.141 1533.44 793.24C1535.59 795.282 1538.34 796.303 1541.69 796.303C1546.34 796.303 1550.57 794.516 1554.37 790.943L1556.58 794.772C1554.93 796.7 1552.86 798.26 1550.37 799.451C1547.87 800.586 1545.07 801.153 1541.95 801.153C1538.43 801.153 1535.22 800.415 1532.33 798.941C1529.44 797.466 1527.17 795.396 1525.52 792.73C1523.88 790.007 1523.06 786.916 1523.06 783.456C1523.06 779.939 1523.82 776.847 1525.35 774.181C1526.94 771.459 1529.07 769.388 1531.74 767.97C1534.46 766.496 1537.46 765.758 1540.75 765.758C1545.86 765.758 1549.86 767.318 1552.75 770.438C1555.7 773.558 1557.18 777.783 1557.18 783.115V784.732ZM1550.96 780.818C1550.96 777.585 1550 775.032 1548.07 773.16C1546.2 771.289 1543.76 770.353 1540.75 770.353C1537.8 770.353 1535.31 771.289 1533.27 773.16C1531.22 775.032 1530.01 777.585 1529.61 780.818H1550.96Z" fill="black"/>
<path d="M825.471 795.622H832.108V756.739H825.471V752.23H866.396V766.779H861.036V756.739H839.084V772.82H857.122V777.67H839.084V795.622H845.721V800.132H825.471V795.622Z" fill="black"/>
<path d="M888.432 801.153C884.859 801.153 881.711 800.415 878.988 798.941C876.265 797.466 874.138 795.395 872.607 792.729C871.132 790.007 870.394 786.887 870.394 783.37C870.394 779.854 871.132 776.762 872.607 774.096C874.138 771.43 876.265 769.388 878.988 767.97C881.711 766.495 884.859 765.758 888.432 765.758C892.006 765.758 895.154 766.495 897.876 767.97C900.656 769.388 902.811 771.43 904.343 774.096C905.874 776.762 906.64 779.825 906.64 783.285C906.64 786.802 905.874 789.922 904.343 792.644C902.811 795.367 900.656 797.466 897.876 798.941C895.154 800.415 892.006 801.153 888.432 801.153ZM888.432 796.218C891.949 796.218 894.785 795.055 896.94 792.729C899.096 790.347 900.174 787.199 900.174 783.285C900.174 779.485 899.096 776.45 896.94 774.181C894.785 771.856 891.949 770.693 888.432 770.693C884.915 770.693 882.108 771.856 880.009 774.181C877.91 776.507 876.861 779.57 876.861 783.37C876.861 787.227 877.91 790.347 880.009 792.729C882.164 795.055 884.972 796.218 888.432 796.218Z" fill="black"/>
<path d="M932.981 766.269C935.136 766.269 937.405 766.836 939.787 767.97L938.256 773.671C936.327 772.423 934.37 771.799 932.385 771.799C930.116 771.799 928.216 772.735 926.684 774.607C925.21 776.422 924.472 778.946 924.472 782.179L924.387 795.622H930.343V800.132H911.71V795.622H918.176V771.203H911.71V766.694H924.387V772.82C926.202 768.452 929.067 766.269 932.981 766.269Z" fill="black"/>
<path d="M958.484 800.132C952.017 800.132 948.784 796.842 948.784 790.262V771.203H943.254V766.694H948.784V755.293L955.08 752.825V766.694H963.929V771.203H955.08V789.922C955.08 792.02 955.421 793.495 956.101 794.346C956.782 795.197 957.945 795.622 959.59 795.622H964.695V800.132H958.484Z" fill="black"/>
<path d="M991.392 766.269C993.548 766.269 995.817 766.836 998.199 767.97L996.667 773.671C994.739 772.423 992.782 771.799 990.797 771.799C988.528 771.799 986.628 772.735 985.096 774.607C983.621 776.422 982.884 778.946 982.884 782.179L982.799 795.622H988.755V800.132H970.121V795.622H976.588V771.203H970.121V766.694H982.799V772.82C984.614 768.452 987.478 766.269 991.392 766.269Z" fill="black"/>
<path d="M1037.49 795.622V800.132H1026.68L1026.34 797.154C1024.52 798.515 1022.71 799.508 1020.89 800.132C1019.08 800.756 1017.04 801.068 1014.77 801.068C1011.36 801.068 1008.59 800.132 1006.43 798.26C1004.33 796.331 1003.28 793.949 1003.28 791.113C1003.28 787.483 1004.5 784.845 1006.94 783.2C1009.44 781.498 1012.7 780.648 1016.73 780.648C1019.62 780.648 1022.71 781.016 1026 781.754V778.265C1026 775.713 1025.29 773.784 1023.87 772.48C1022.51 771.175 1020.58 770.523 1018.09 770.523C1016.44 770.523 1014.54 770.806 1012.39 771.374C1010.29 771.884 1008.36 772.621 1006.6 773.586L1004.73 769.502C1006.6 768.311 1008.76 767.403 1011.19 766.779C1013.69 766.155 1016.02 765.843 1018.17 765.843C1022.54 765.843 1025.97 766.921 1028.47 769.076C1030.96 771.175 1032.21 774.04 1032.21 777.67V795.622H1037.49ZM1009.24 790.773C1009.24 792.531 1009.81 793.977 1010.94 795.112C1012.13 796.19 1013.72 796.728 1015.7 796.728C1019.05 796.728 1022.48 795.509 1026 793.07V785.412C1022.99 784.732 1020.04 784.391 1017.15 784.391C1014.88 784.391 1012.98 784.902 1011.45 785.923C1009.98 786.887 1009.24 788.504 1009.24 790.773Z" fill="black"/>
<path d="M1082.58 795.622V800.132H1064.63V795.622H1070.16V778.18C1070.16 775.855 1069.59 774.04 1068.46 772.735C1067.33 771.43 1065.77 770.778 1063.78 770.778C1062.14 770.778 1060.46 771.09 1058.76 771.714C1057.12 772.281 1055.3 773.16 1053.32 774.351V795.622H1059.36V800.132H1040.64V795.622H1047.1V771.203H1040.64V766.694H1053.32V770.012C1057.74 767.233 1061.77 765.843 1065.4 765.843C1068.57 765.843 1071.18 766.836 1073.23 768.821C1075.32 770.75 1076.37 773.472 1076.37 776.989V795.622H1082.58Z" fill="black"/>
<path d="M1105.04 802.125H1111.68V763.242H1105.04V758.732H1145.97V773.282H1140.61V763.242H1118.66V779.323H1136.7V784.172H1118.66V802.125H1125.29V806.634H1105.04V802.125Z" fill="black"/>
<path d="M1151.99 802.125H1158.62V763.242H1151.99V758.732H1192.91V773.282H1187.55V763.242H1165.6V779.323H1183.64V784.172H1165.6V802.125H1172.24V806.634H1151.99V802.125Z" fill="black"/>
<path d="M1398.77 795.623H1405.06V755.804H1398.94V751.379H1411.36V795.623H1416.8V800.132H1398.77V795.623Z" fill="black"/>
<path fill-rule="evenodd" clip-rule="evenodd" d="M1411.36 783.704L1427.78 800.125H1437.56V795.616H1430.93L1417.82 782.683L1411.35 782.684L1411.36 783.704Z" fill="black"/>
<path fill-rule="evenodd" clip-rule="evenodd" d="M1411.36 781.662L1427.64 766.681H1437.43V771.191H1430.79L1417.82 782.683L1411.35 782.682L1411.36 781.662Z" fill="black"/>
<path d="M1210.11 806.626V802.117H1216.74V763.241H1203.64V775.405H1198.45V758.732H1241.67V775.405H1236.48V763.241H1223.63V802.117H1230.27V806.626H1210.11Z" fill="black"/>
<path d="M675.236 702.845L694.79 580.211C696.348 570.86 699.111 563.704 703.079 558.745C707.188 553.786 712.005 550.385 717.531 548.543C723.057 546.701 728.654 545.851 734.322 545.993C746.082 545.993 757.134 546.206 767.477 546.631C777.821 547.056 788.094 547.622 798.295 548.331L794.895 570.222H737.722C732.338 570.222 728.229 571.568 725.395 574.26C722.703 576.953 720.861 581.062 719.869 586.588L715.193 616.343L777.679 618.043L774.279 638.659L711.58 640.147L701.591 702.845H675.236Z" fill="black"/>
<path d="M792.09 702.845L811.644 580.211C813.202 570.86 815.965 563.704 819.933 558.745C824.042 553.786 828.859 550.385 834.385 548.543C839.911 546.701 845.508 545.851 851.176 545.993C862.936 545.993 873.988 546.206 884.331 546.631C894.675 547.056 904.947 547.622 915.149 548.331L911.749 570.222H854.576C849.192 570.222 845.083 571.568 842.249 574.26C839.557 576.953 837.715 581.062 836.723 586.588L832.047 616.343L894.533 618.043L891.133 638.659L828.434 640.147L818.445 702.845H792.09Z" fill="black"/>
<path d="M947.576 702.845L968.617 569.585H923.347L927.173 545.993H1044.07L1040.24 569.585H994.972L973.931 702.845H947.576Z" fill="black"/>
<path d="M1040.33 702.843L1065.19 545.991H1126.83C1134.2 545.991 1140.79 547.195 1146.6 549.604C1152.55 551.871 1157.29 555.909 1160.84 561.719C1164.38 567.386 1166.15 575.392 1166.15 585.735C1166.15 587.861 1165.94 590.482 1165.51 593.599C1165.09 596.575 1164.66 599.267 1164.24 601.676C1162.82 611.311 1160.41 619.316 1157.01 625.692C1153.75 631.927 1149.86 636.886 1145.32 640.57C1140.79 644.254 1135.9 646.875 1130.66 648.434C1125.41 649.993 1120.17 650.772 1114.93 650.772C1108.13 650.772 1101.11 650.418 1093.89 649.709C1086.66 649.001 1080.57 648.292 1075.61 647.584L1066.68 702.843H1040.33ZM1078.58 627.18H1111.74C1116.13 627.18 1120.1 626.259 1123.64 624.417C1127.33 622.434 1130.37 619.387 1132.78 615.278C1135.33 611.027 1137.1 605.572 1138.1 598.913C1138.38 597.071 1138.66 595.087 1138.95 592.962C1139.23 590.836 1139.37 589.278 1139.37 588.286C1139.37 581.343 1137.81 576.526 1134.69 573.833C1131.72 571 1127.4 569.583 1121.73 569.583H1087.72L1078.58 627.18Z" fill="black"/>
<path d="M1149.52 702.843L1226.03 545.991H1259.19L1284.69 702.843H1257.49L1251.54 665.862H1194.58L1176.73 702.843H1149.52ZM1204.57 642.27H1248.99L1238.79 568.733L1204.57 642.27Z" fill="black"/>
<path d="M1358.17 704.119C1341.3 704.119 1328.91 699.585 1320.97 690.516C1313.04 681.448 1309.07 668.696 1309.07 652.26C1309.07 647.159 1309.28 641.845 1309.71 636.319C1310.27 630.793 1310.98 625.338 1311.83 619.954C1314.38 603.518 1318.28 589.703 1323.52 578.509C1328.76 567.316 1335.78 558.885 1344.56 553.217C1353.35 547.55 1364.26 544.716 1377.29 544.716C1389.2 544.716 1399.19 545.637 1407.26 547.479C1415.34 549.179 1421.93 550.879 1427.03 552.58L1423.63 573.196C1417.25 571.779 1410.52 570.645 1403.44 569.795C1396.35 568.803 1389.13 568.307 1381.76 568.307C1375.66 568.307 1370.28 569.158 1365.6 570.858C1361.07 572.558 1357.03 575.534 1353.49 579.784C1350.09 583.893 1347.11 589.632 1344.56 597C1342.01 604.368 1339.82 613.72 1337.97 625.055C1337.12 629.872 1336.42 634.69 1335.85 639.507C1335.42 644.325 1335.21 648.646 1335.21 652.472C1335.21 662.249 1337.41 669.404 1341.8 673.938C1346.33 678.331 1354.13 680.527 1365.18 680.527C1374.96 680.527 1382.89 680.315 1388.98 679.889C1395.08 679.323 1401.1 678.614 1407.05 677.764L1403.65 698.38C1396.71 700.647 1389.2 702.135 1381.12 702.843C1373.19 703.694 1365.53 704.119 1358.17 704.119Z" fill="black"/>
<path d="M1427.63 702.845L1452.5 545.986H1478.85L1468.44 612.3L1531.05 545.986H1557.41L1490.2 624.505L1538.28 702.845H1512.15L1464.92 634.4L1453.98 702.845H1427.63Z" fill="black"/>
<path fill-rule="evenodd" clip-rule="evenodd" d="M963.593 234.853C974.693 173.322 1030.15 137.807 1079.1 138.431L1200.66 138.396C1253.7 138.973 1291.59 181.921 1285.44 234.816L1269.78 351.01C1258.68 412.542 1203.22 448.056 1154.27 447.432L1032.06 447.43C979.053 446.812 941.207 403.88 947.352 351.01L963.593 234.853Z" fill="black"/>
<path d="M948.853 340.28L955.922 289.717C956.204 290.77 957.03 293.43 957.866 296.123C958.845 299.274 959.838 302.47 959.988 303.188C963.346 319.275 969.345 340.289 976.215 340.289C986.329 340.289 999.494 307.758 1006.52 289.017C1008.94 282.572 1011.59 276.309 1014.42 270.043C1021.25 254.942 1028.83 239.505 1036.58 224.825C1040.38 217.618 1055.19 192.623 1070.51 192.623C1085 192.623 1098.97 223.068 1111.33 251.339C1116.39 264.34 1121.4 277.483 1126.35 290.617C1128.57 296.678 1131.37 302.703 1133.49 307.267L1133.49 307.268C1134.63 309.724 1135.58 311.757 1136.13 313.144C1147.57 341.951 1158.92 355.949 1166.23 355.949C1175.67 355.949 1182.05 345.082 1195.84 313.144L1195.84 313.142C1197.38 309.584 1199.03 305.765 1200.81 301.67C1204.42 293.403 1207.74 285.079 1210.93 276.528C1220.49 250.832 1237.35 206.12 1255.46 206.12C1266.53 206.12 1280.79 233.724 1283.96 245.836L1276.78 299.058C1276.14 296.377 1275.45 292.595 1274.65 288.241C1271.33 270.132 1266.2 242.11 1255.46 242.11C1246 242.11 1235.4 270.588 1228.32 289.61C1227.83 290.936 1227.35 292.217 1226.89 293.438C1223.79 301.713 1220.22 309.718 1216.56 317.772C1207.7 337.325 1205.14 342.979 1197.59 357.292C1190.92 369.93 1180.31 388.579 1166.23 388.579C1151.12 388.579 1137.91 362.242 1124.32 335.138C1123.1 332.701 1121.87 330.257 1120.64 327.826L1120 326.317C1114.98 314.521 1109.59 301.865 1104.33 288.668C1102.47 284.485 1100.41 278.756 1098.13 272.461C1090.9 252.433 1081.6 226.669 1070.51 226.669C1059.17 226.669 1050.41 239.933 1032.6 280.786C1030.46 285.692 1028.64 290.707 1026.82 295.722C1025.02 300.671 1023.23 305.621 1021.13 310.466L1020.74 311.353C1010.56 334.813 992.528 376.391 976.215 376.391C964.659 376.391 953.715 352.158 948.853 340.28Z" fill="#63EEA9"/>
<path d="M956.868 282.95L954.039 303.195H1084.91C1083.84 312.406 1090.44 319.887 1099.67 319.995L1083.33 447.431L1104.72 447.431L1120.97 319.995C1129.5 320.105 1139.16 313.917 1141.09 303.195H1276.23L1278.95 282.95H1143.82C1144.89 273.733 1138.29 266.249 1129.05 266.148L1145.23 138.412L1124.71 138.418L1107.87 266.154C1099.34 266.046 1089.68 272.228 1087.74 282.95C1044.13 282.95 1000.48 282.529 956.868 282.95Z" fill="white"/>
</svg>
