<svg width="1394" height="353" viewBox="0 0 1394 353" fill="none" xmlns="http://www.w3.org/2000/svg">
<rect y="0.725098" width="1394" height="351.55" rx="29" fill="white"/>
<path d="M462.711 256.928L482.264 134.294C483.823 124.942 486.586 117.787 490.553 112.828C494.662 107.869 499.48 104.468 505.006 102.626C510.532 100.784 516.129 99.9338 521.796 100.075C533.557 100.075 544.609 100.288 554.952 100.713C565.296 101.138 575.568 101.705 585.77 102.413L582.369 124.305H525.197C519.813 124.305 515.704 125.651 512.87 128.343C510.178 131.035 508.336 135.144 507.344 140.67L502.668 170.425L565.154 172.126L561.753 192.742L499.055 194.229L489.066 256.928H462.711Z" fill="black"/>
<path d="M579.565 256.928L599.118 134.294C600.677 124.942 603.44 117.787 607.407 112.828C611.516 107.869 616.334 104.468 621.86 102.626C627.386 100.784 632.983 99.9338 638.65 100.075C650.411 100.075 661.463 100.288 671.806 100.713C682.149 101.138 692.422 101.705 702.624 102.413L699.223 124.305H642.051C636.666 124.305 632.557 125.651 629.724 128.343C627.031 131.035 625.189 135.144 624.198 140.67L619.522 170.425L682.008 172.126L678.607 192.742L615.909 194.229L605.919 256.928H579.565Z" fill="black"/>
<path d="M735.051 256.928L756.092 123.667H710.821L714.647 100.075H831.543L827.717 123.667H782.446L761.405 256.928H735.051Z" fill="black"/>
<path d="M827.802 256.926L852.669 100.074H914.305C921.673 100.074 928.261 101.278 934.071 103.687C940.022 105.954 944.769 109.992 948.311 115.801C951.853 121.469 953.624 129.475 953.624 139.818C953.624 141.944 953.412 144.565 952.987 147.682C952.562 150.658 952.137 153.35 951.711 155.758C950.295 165.393 947.886 173.399 944.485 179.775C941.226 186.01 937.33 190.969 932.796 194.653C928.262 198.337 923.373 200.958 918.131 202.517C912.888 204.075 907.645 204.854 902.403 204.854C895.602 204.854 888.588 204.5 881.362 203.792C874.135 203.083 868.043 202.375 863.083 201.666L854.157 256.926H827.802ZM866.059 181.263H899.215C903.607 181.263 907.575 180.342 911.117 178.5C914.801 176.516 917.847 173.47 920.256 169.361C922.806 165.11 924.578 159.655 925.569 152.995C925.853 151.153 926.136 149.17 926.42 147.044C926.703 144.919 926.845 143.36 926.845 142.369C926.845 135.426 925.286 130.608 922.169 127.916C919.193 125.082 914.872 123.665 909.204 123.665H875.198L866.059 181.263Z" fill="black"/>
<path d="M936.995 256.926L1013.51 100.074H1046.66L1072.17 256.926H1044.96L1039.01 219.945H982.053L964.2 256.926H936.995ZM992.042 196.353H1036.46L1026.26 122.815L992.042 196.353Z" fill="black"/>
<path d="M1145.64 258.201C1128.78 258.201 1116.38 253.667 1108.45 244.599C1100.51 235.531 1096.54 222.778 1096.54 206.342C1096.54 201.241 1096.76 195.928 1097.18 190.402C1097.75 184.876 1098.46 179.421 1099.31 174.037C1101.86 157.6 1105.75 143.785 1111 132.592C1116.24 121.398 1123.25 112.968 1132.04 107.3C1140.82 101.632 1151.73 98.7985 1164.77 98.7985C1176.67 98.7985 1186.66 99.7195 1194.74 101.561C1202.81 103.262 1209.4 104.962 1214.5 106.662L1211.1 127.278C1204.73 125.862 1197.99 124.728 1190.91 123.878C1183.83 122.886 1176.6 122.39 1169.23 122.39C1163.14 122.39 1157.75 123.24 1153.08 124.941C1148.54 126.641 1144.51 129.616 1140.96 133.867C1137.56 137.976 1134.59 143.715 1132.04 151.083C1129.49 158.451 1127.29 167.802 1125.45 179.137C1124.6 183.955 1123.89 188.773 1123.32 193.59C1122.9 198.408 1122.69 202.729 1122.69 206.555C1122.69 216.332 1124.88 223.487 1129.27 228.021C1133.81 232.413 1141.6 234.61 1152.65 234.61C1162.43 234.61 1170.37 234.397 1176.46 233.972C1182.55 233.405 1188.57 232.697 1194.52 231.847L1191.12 252.463C1184.18 254.73 1176.67 256.218 1168.59 256.926C1160.66 257.776 1153.01 258.201 1145.64 258.201Z" fill="black"/>
<path d="M1215.1 256.928L1239.97 100.068H1266.33L1255.91 166.383L1318.52 100.068H1344.89L1277.67 178.587L1325.75 256.928H1299.62L1252.39 188.483L1241.46 256.928H1215.1Z" fill="black"/>
<path fill-rule="evenodd" clip-rule="evenodd" d="M48.0677 120.435C59.1682 58.9035 114.627 23.3892 163.576 24.013L285.133 23.9775C338.179 24.5553 376.064 67.5029 369.916 120.398L354.257 236.592C343.157 298.124 287.698 333.638 238.749 333.014L116.535 333.012C63.5278 332.394 25.6817 289.462 31.8268 236.592L48.0677 120.435Z" fill="black"/>
<path fill-rule="evenodd" clip-rule="evenodd" d="M360.701 188.773H225.568C223.633 199.495 213.97 205.683 205.441 205.573L189.19 333.013L167.797 333.013L184.146 205.573C174.911 205.465 168.315 197.984 169.386 188.773H38.5127L41.3025 168.82C55.7951 168.68 92.4984 168.534 172.216 168.534C174.15 157.812 183.813 151.624 192.342 151.732L209.215 23.9999L229.733 23.9939L213.523 151.726C222.765 151.828 229.366 159.312 228.296 168.528H363.43L360.701 188.773Z" fill="white"/>
<path fill-rule="evenodd" clip-rule="evenodd" d="M363.43 168.528L368.93 127.711C362.227 111.565 352.705 99.3775 341.287 101.363C319.489 105.153 300.842 155.148 296.466 166.882C296.265 167.419 296.061 167.968 295.852 168.528H318.895C320.372 165.135 321.855 161.75 323.353 158.377C328.349 147.12 334.194 137.348 340.235 136.613C346.888 135.803 353.557 149.904 356.522 161.575C356.919 163.139 357.161 164.727 357.372 166.109C357.512 167.03 357.639 167.859 357.788 168.528H363.43ZM310.161 188.774H288.038C281.305 205.392 272.57 224.473 262.554 238.202L262.214 238.669C259.593 242.274 256.502 246.526 251.797 247.005C248.127 247.376 245.243 243.776 243.102 241.102L243.099 241.099C238.995 235.965 235.559 230.381 232.558 224.537C228.241 216.13 224.284 207.563 220.529 198.905C216.479 203.278 210.741 205.641 205.441 205.573L204.501 212.946C210.81 228.116 214.766 236.745 220.781 248.458C224.882 256.443 229.34 263.497 233.722 268.909C238.007 274.201 242.677 278.483 247.09 279.924C251.395 281.329 257.267 280.054 261.396 277.239C264.776 274.935 268.592 270.576 272.134 265.721C275.763 260.747 279.491 254.714 282.705 248.483C292.7 229.104 301.486 208.929 310.161 188.774ZM180.902 155.281C177.335 147.117 173.582 139.039 169.51 131.109C169.377 130.849 169.222 130.544 169.047 130.198L169.004 130.113C166.041 124.249 157.595 107.537 149.835 108.697C146.448 109.192 144.129 111.657 142.049 114.169C129.899 128.851 121.238 149.058 113.424 168.567C105.271 168.578 97.8855 168.59 91.2056 168.604C100.155 147.763 109.305 126.663 119.363 107.164C122.577 100.932 126.304 94.8996 129.934 89.9251C133.475 85.0703 137.292 80.7117 140.671 78.4072C144.801 75.5921 150.71 74.3536 155.015 75.7587C159.428 77.1998 164.061 81.4459 168.346 86.7374C172.728 92.1492 177.186 99.2027 181.287 107.188C186.267 116.888 189.837 124.472 194.499 135.407L192.342 151.732C188.488 151.683 184.402 152.92 180.902 155.281ZM82.5214 188.774H105.316C104.777 190.077 104.237 191.365 103.696 192.636C93.4057 216.796 76.0421 254.813 59.6411 257.664C48.3703 259.625 39.2215 247.327 32.5444 231.461L38.5127 188.774H43.8292C44.3287 190.326 45.0308 193.064 45.7573 195.92L45.7817 196.015L45.7889 196.046C48.7534 207.717 54.0411 223.224 60.6938 222.415C66.7334 221.68 72.7912 210.822 77.7877 199.564C79.3691 196.001 80.9457 192.401 82.5214 188.774Z" fill="#63EEA9"/>
</svg>
