<svg width="2234" height="658" viewBox="0 0 2234 658" fill="none" xmlns="http://www.w3.org/2000/svg">
<rect x="0.172607" y="0.527832" width="2232.98" height="657.373" fill="white"/>
<path fill-rule="evenodd" clip-rule="evenodd" d="M431.261 271.15C442.362 209.618 497.821 174.104 546.769 174.728L668.326 174.692C721.372 175.27 759.257 218.218 753.109 271.113L737.451 387.307C726.35 448.839 670.891 484.353 621.943 483.729L499.728 483.727C446.721 483.109 408.875 440.177 415.02 387.307L431.261 271.15Z" fill="black"/>
<path fill-rule="evenodd" clip-rule="evenodd" d="M743.895 339.488H608.761C606.826 350.21 597.163 356.397 588.634 356.287L572.383 483.728L550.99 483.728L567.339 356.287C558.104 356.18 551.509 348.698 552.579 339.488H421.706L424.496 319.535C438.988 319.395 475.692 319.248 555.409 319.248C557.344 308.527 567.007 302.339 575.535 302.446L592.409 174.714L612.927 174.708L596.716 302.441C605.959 302.542 612.56 310.026 611.489 319.243H746.623L743.895 339.488Z" fill="white"/>
<path fill-rule="evenodd" clip-rule="evenodd" d="M746.623 319.243L752.124 278.426C745.421 262.28 735.899 250.092 724.48 252.078C702.682 255.868 684.035 305.863 679.659 317.597C679.459 318.134 679.254 318.683 679.045 319.243H702.088C703.565 315.85 705.049 312.465 706.546 309.092C711.542 297.835 717.388 288.062 723.428 287.328C730.081 286.518 736.751 300.619 739.715 312.29C740.113 313.854 740.355 315.442 740.565 316.824C740.706 317.745 740.832 318.574 740.981 319.243H746.623ZM693.354 339.488H671.231C664.498 356.107 655.763 375.188 645.747 388.917L645.407 389.384C642.787 392.989 639.695 397.241 634.99 397.72C631.32 398.091 628.436 394.491 626.296 391.817L626.293 391.814C622.188 386.68 618.752 381.096 615.751 375.252C611.434 366.845 607.478 358.277 603.722 349.62C599.673 353.992 593.935 356.356 588.635 356.287L587.694 363.661C594.004 378.831 597.96 387.46 603.975 399.173C608.075 407.158 612.533 414.212 616.915 419.624C621.2 424.915 625.87 429.198 630.284 430.638C634.589 432.044 640.461 430.769 644.59 427.954C647.969 425.65 651.786 421.291 655.328 416.436C658.956 411.462 662.685 405.429 665.899 399.197C675.894 379.819 684.68 359.644 693.354 339.488ZM564.096 305.995C560.528 297.832 556.776 289.753 552.704 281.824C552.57 281.564 552.416 281.258 552.241 280.913L552.198 280.827C549.235 274.964 540.788 258.252 533.028 259.412C529.641 259.907 527.323 262.372 525.243 264.884C513.092 279.566 504.432 299.773 496.618 319.282C488.465 319.293 481.079 319.305 474.399 319.319C483.348 298.477 492.498 277.378 502.556 257.879C505.77 251.647 509.498 245.614 513.127 240.64C516.669 235.785 520.485 231.427 523.865 229.122C527.994 226.307 533.903 225.068 538.208 226.474C542.622 227.915 547.255 232.161 551.54 237.452C555.921 242.864 560.379 249.918 564.48 257.903C569.461 267.603 573.03 275.187 577.692 286.122L575.536 302.447C571.681 302.398 567.595 303.635 564.096 305.995ZM465.715 339.488H488.51C487.97 340.792 487.431 342.079 486.89 343.35C476.599 367.51 459.235 405.527 442.834 408.379C431.564 410.34 422.415 398.041 415.738 382.176L421.706 339.488H427.023C427.522 341.041 428.224 343.779 428.951 346.635L428.975 346.73L428.982 346.761C431.947 358.432 437.234 373.939 443.887 373.13C449.927 372.395 455.985 361.536 460.981 350.279C462.562 346.716 464.139 343.116 465.715 339.488Z" fill="#63EEA9"/>
<path d="M936.78 370.824L956.334 248.19C957.892 238.839 960.655 231.683 964.623 226.724C968.732 221.765 973.549 218.364 979.075 216.522C984.601 214.68 990.198 213.83 995.866 213.972C1007.63 213.972 1018.68 214.184 1029.02 214.609C1039.36 215.034 1049.64 215.601 1059.84 216.31L1056.44 238.201H999.266C993.882 238.201 989.773 239.547 986.939 242.239C984.247 244.931 982.405 249.04 981.413 254.566L976.737 284.322L1039.22 286.022L1035.82 306.638L973.124 308.126L963.135 370.824H936.78Z" fill="black"/>
<path d="M1053.63 370.824L1073.19 248.19C1074.75 238.839 1077.51 231.683 1081.48 226.724C1085.59 221.765 1090.4 218.364 1095.93 216.522C1101.46 214.68 1107.05 213.83 1112.72 213.972C1124.48 213.972 1135.53 214.184 1145.88 214.609C1156.22 215.034 1166.49 215.601 1176.69 216.31L1173.29 238.201H1116.12C1110.74 238.201 1106.63 239.547 1103.79 242.239C1101.1 244.931 1099.26 249.04 1098.27 254.566L1093.59 284.322L1156.08 286.022L1152.68 306.638L1089.98 308.126L1079.99 370.824H1053.63Z" fill="black"/>
<path d="M1209.12 370.824L1230.16 237.563H1184.89L1188.72 213.972H1305.61L1301.79 237.563H1256.52L1235.47 370.824H1209.12Z" fill="black"/>
<path d="M1301.87 370.822L1326.74 213.97H1388.37C1395.74 213.97 1402.33 215.174 1408.14 217.583C1414.09 219.85 1418.84 223.888 1422.38 229.698C1425.92 235.365 1427.69 243.371 1427.69 253.714C1427.69 255.84 1427.48 258.461 1427.06 261.578C1426.63 264.554 1426.21 267.246 1425.78 269.655C1424.36 279.29 1421.96 287.295 1418.55 293.671C1415.3 299.906 1411.4 304.865 1406.86 308.549C1402.33 312.233 1397.44 314.854 1392.2 316.413C1386.96 317.972 1381.71 318.751 1376.47 318.751C1369.67 318.751 1362.66 318.397 1355.43 317.688C1348.2 316.98 1342.11 316.271 1337.15 315.563L1328.23 370.822H1301.87ZM1340.13 295.159H1373.28C1377.68 295.159 1381.64 294.238 1385.19 292.396C1388.87 290.413 1391.92 287.366 1394.33 283.257C1396.88 279.006 1398.65 273.551 1399.64 266.892C1399.92 265.05 1400.21 263.066 1400.49 260.941C1400.77 258.815 1400.91 257.257 1400.91 256.265C1400.91 249.322 1399.36 244.505 1396.24 241.812C1393.26 238.979 1388.94 237.562 1383.27 237.562H1349.27L1340.13 295.159Z" fill="black"/>
<path d="M1411.06 370.822L1487.58 213.97H1520.73L1546.24 370.822H1519.03L1513.08 333.841H1456.12L1438.27 370.822H1411.06ZM1466.11 310.249H1510.53L1500.33 236.712L1466.11 310.249Z" fill="black"/>
<path d="M1619.71 372.098C1602.85 372.098 1590.45 367.564 1582.52 358.495C1574.58 349.427 1570.61 336.675 1570.61 320.239C1570.61 315.138 1570.83 309.824 1571.25 304.298C1571.82 298.772 1572.53 293.317 1573.38 287.933C1575.93 271.497 1579.82 257.682 1585.07 246.488C1590.31 235.295 1597.32 226.864 1606.11 221.196C1614.89 215.529 1625.8 212.695 1638.84 212.695C1650.74 212.695 1660.73 213.616 1668.81 215.458C1676.88 217.158 1683.47 218.858 1688.57 220.559L1685.17 241.175C1678.79 239.758 1672.06 238.624 1664.98 237.774C1657.9 236.782 1650.67 236.286 1643.3 236.286C1637.21 236.286 1631.82 237.137 1627.15 238.837C1622.61 240.537 1618.58 243.513 1615.03 247.763C1611.63 251.872 1608.66 257.611 1606.11 264.979C1603.56 272.347 1601.36 281.699 1599.52 293.034C1598.67 297.851 1597.96 302.669 1597.39 307.486C1596.97 312.304 1596.76 316.625 1596.76 320.451C1596.76 330.228 1598.95 337.383 1603.34 341.917C1607.88 346.31 1615.67 348.506 1626.72 348.506C1636.5 348.506 1644.43 348.294 1650.53 347.868C1656.62 347.302 1662.64 346.593 1668.59 345.743L1665.19 366.359C1658.25 368.626 1650.74 370.114 1642.66 370.822C1634.73 371.673 1627.08 372.098 1619.71 372.098Z" fill="black"/>
<path d="M1689.17 370.824L1714.04 213.965H1740.4L1729.98 280.279L1792.59 213.965H1818.96L1751.74 292.484L1799.82 370.824H1773.69L1726.46 302.379L1715.53 370.824H1689.17Z" fill="black"/>
<path d="M947.996 464.372V460.032H954.382V422.618H941.774V434.325H936.78V418.279H978.37V434.325H973.376V422.618H961.014V460.032H967.4V464.372H947.996Z" fill="black"/>
<path d="M981.448 464.372V460.032H987.425V421.717H981.53V417.46H993.483V436.945L991.272 437.354C993.619 435.608 995.966 434.189 998.313 433.097C1000.66 431.951 1003.09 431.378 1005.6 431.378C1008.55 431.378 1011.06 432.306 1013.13 434.161C1015.21 435.963 1016.24 438.61 1016.24 442.103V460.032H1022.14V464.372H1004.86V460.032H1010.18V443.249C1010.18 441.011 1009.64 439.265 1008.55 438.009C1007.51 436.754 1006.04 436.126 1004.13 436.126C1002.05 436.126 999.896 436.645 997.658 437.682C995.421 438.664 993.347 439.892 991.436 441.366L993.483 438.419V460.032H998.723V464.372H981.448Z" fill="black"/>
<path d="M1043.38 465.354C1040 465.354 1036.91 464.644 1034.13 463.225C1031.4 461.806 1029.22 459.814 1027.58 457.249C1026 454.684 1025.21 451.709 1025.21 448.325C1025.21 444.832 1025.97 441.83 1027.5 439.319C1029.03 436.754 1031.07 434.789 1033.64 433.425C1036.2 432.006 1039.07 431.296 1042.24 431.296C1045.51 431.296 1048.32 431.978 1050.67 433.343C1053.07 434.707 1054.9 436.645 1056.15 439.156C1057.41 441.666 1058.04 444.614 1058.04 447.997V449.553H1030.53L1030.61 445.787H1052.06C1052.06 443.658 1051.62 441.857 1050.75 440.384C1049.93 438.855 1048.78 437.709 1047.31 436.945C1045.84 436.126 1044.15 435.717 1042.24 435.717C1040.22 435.717 1038.39 436.208 1036.75 437.191C1035.11 438.119 1033.8 439.483 1032.82 441.284C1031.89 443.031 1031.43 445.159 1031.43 447.67C1031.43 450.344 1031.92 452.664 1032.9 454.629C1033.88 456.539 1035.25 458.04 1037 459.132C1038.8 460.169 1040.84 460.687 1043.14 460.687C1045.59 460.687 1047.86 460.196 1049.93 459.214C1052.01 458.231 1053.81 457.003 1055.33 455.53L1057.46 459.214C1055.99 460.906 1054.08 462.352 1051.73 463.553C1049.39 464.754 1046.6 465.354 1043.38 465.354Z" fill="black"/>
<path d="M1562.04 433.453C1565.1 433.453 1567.85 434.134 1570.29 435.495C1572.79 436.8 1574.74 438.757 1576.16 441.366C1577.58 443.918 1578.29 446.981 1578.29 450.555C1578.29 454.242 1577.5 457.447 1575.91 460.169C1574.38 462.892 1572.28 464.991 1569.61 466.466C1567 467.884 1564.14 468.593 1561.02 468.593C1559.03 468.593 1557.13 468.281 1555.32 467.657C1553.56 467.033 1552.11 466.21 1550.98 465.189L1550.89 476.505H1557.44V481.015H1538.64V476.505H1544.68V438.813H1538.81V434.304H1550.55L1550.64 437.452C1552.28 436.148 1554.07 435.155 1556 434.474C1557.98 433.794 1560 433.453 1562.04 433.453ZM1559.91 463.913C1563.43 463.913 1566.26 462.807 1568.42 460.595C1570.63 458.326 1571.74 455.149 1571.74 451.065C1571.74 447.095 1570.66 443.975 1568.51 441.706C1566.41 439.437 1563.68 438.303 1560.34 438.303C1558.98 438.303 1557.39 438.587 1555.57 439.154C1553.81 439.721 1552.25 440.572 1550.89 441.706L1550.98 460.68C1552.28 461.701 1553.7 462.495 1555.23 463.062C1556.82 463.629 1558.38 463.913 1559.91 463.913Z" fill="black"/>
<path d="M1618.09 463.232V467.742H1607.28L1606.94 464.764C1605.12 466.125 1603.31 467.118 1601.49 467.742C1599.68 468.366 1597.64 468.678 1595.37 468.678C1591.96 468.678 1589.19 467.742 1587.03 465.87C1584.93 463.941 1583.88 461.559 1583.88 458.723C1583.88 455.093 1585.1 452.455 1587.54 450.81C1590.04 449.109 1593.3 448.258 1597.32 448.258C1600.22 448.258 1603.31 448.626 1606.6 449.364V445.875C1606.6 443.323 1605.89 441.394 1604.47 440.09C1603.11 438.785 1601.18 438.133 1598.69 438.133C1597.04 438.133 1595.14 438.416 1592.99 438.984C1590.89 439.494 1588.96 440.232 1587.2 441.196L1585.33 437.112C1587.2 435.921 1589.36 435.013 1591.79 434.389C1594.29 433.765 1596.62 433.453 1598.77 433.453C1603.14 433.453 1606.57 434.531 1609.07 436.686C1611.56 438.785 1612.81 441.65 1612.81 445.28V463.232H1618.09ZM1589.84 458.383C1589.84 460.141 1590.4 461.587 1591.54 462.722C1592.73 463.8 1594.32 464.338 1596.3 464.338C1599.65 464.338 1603.08 463.119 1606.6 460.68V453.022C1603.59 452.342 1600.64 452.001 1597.75 452.001C1595.48 452.001 1593.58 452.512 1592.05 453.533C1590.57 454.497 1589.84 456.114 1589.84 458.383Z" fill="black"/>
<path d="M1640.55 438.303C1636.92 438.303 1633.94 439.466 1631.62 441.791C1629.29 444.117 1628.13 447.067 1628.13 450.64C1628.13 454.497 1629.26 457.645 1631.53 460.084C1633.8 462.467 1636.75 463.658 1640.38 463.658C1643.1 463.658 1645.4 463.147 1647.27 462.126C1649.15 461.049 1650.96 459.517 1652.72 457.532L1655.36 461.361C1653.6 463.629 1651.41 465.416 1648.8 466.721C1646.2 467.969 1643.19 468.593 1639.79 468.593C1636.27 468.593 1633.12 467.827 1630.34 466.295C1627.62 464.764 1625.46 462.665 1623.88 459.999C1622.34 457.277 1621.58 454.214 1621.58 450.81C1621.58 447.407 1622.32 444.401 1623.79 441.791C1625.32 439.125 1627.42 437.055 1630.09 435.58C1632.75 434.106 1635.76 433.368 1639.11 433.368C1641.6 433.368 1643.81 433.822 1645.74 434.729C1647.67 435.637 1649.15 436.857 1650.17 438.388V434.134H1655.44V446.131H1650.68C1650.17 443.692 1649 441.791 1647.19 440.43C1645.37 439.012 1643.16 438.303 1640.55 438.303Z" fill="black"/>
<path d="M1738.23 463.232V467.742H1727.43L1727.09 464.764C1725.27 466.125 1723.46 467.118 1721.64 467.742C1719.83 468.366 1717.78 468.678 1715.51 468.678C1712.11 468.678 1709.33 467.742 1707.18 465.87C1705.08 463.941 1704.03 461.559 1704.03 458.723C1704.03 455.093 1705.25 452.455 1707.69 450.81C1710.18 449.109 1713.44 448.258 1717.47 448.258C1720.36 448.258 1723.46 448.626 1726.75 449.364V445.875C1726.75 443.323 1726.04 441.394 1724.62 440.09C1723.26 438.785 1721.33 438.133 1718.83 438.133C1717.19 438.133 1715.29 438.416 1713.13 438.984C1711.03 439.494 1709.11 440.232 1707.35 441.196L1705.47 437.112C1707.35 435.921 1709.5 435.013 1711.94 434.389C1714.44 433.765 1716.76 433.453 1718.92 433.453C1723.29 433.453 1726.72 434.531 1729.21 436.686C1731.71 438.785 1732.96 441.65 1732.96 445.28V463.232H1738.23ZM1709.98 458.383C1709.98 460.141 1710.55 461.587 1711.69 462.722C1712.88 463.8 1714.47 464.338 1716.45 464.338C1719.8 464.338 1723.23 463.119 1726.75 460.68V453.022C1723.74 452.342 1720.79 452.001 1717.9 452.001C1715.63 452.001 1713.73 452.512 1712.2 453.533C1710.72 454.497 1709.98 456.114 1709.98 458.383Z" fill="black"/>
<path d="M1776.69 434.304V438.813V468.508C1776.69 473.669 1775.13 477.498 1772.01 479.994C1768.89 482.49 1764.73 483.737 1759.51 483.737C1755.54 483.737 1751.34 483.057 1746.92 481.695L1748.19 476.761C1752.5 478.065 1756.22 478.718 1759.34 478.718C1762.85 478.718 1765.58 477.895 1767.51 476.25C1769.43 474.662 1770.4 472.223 1770.4 468.933V464.338C1768.81 465.53 1767.02 466.437 1765.04 467.061C1763.11 467.685 1761.18 467.997 1759.25 467.997C1756.08 467.997 1753.18 467.316 1750.57 465.955C1747.96 464.537 1745.89 462.523 1744.36 459.914C1742.89 457.305 1742.15 454.242 1742.15 450.725C1742.15 447.095 1742.89 444.004 1744.36 441.451C1745.84 438.842 1747.85 436.885 1750.4 435.58C1753.01 434.219 1755.91 433.538 1759.08 433.538C1761.01 433.538 1763 433.879 1765.04 434.559C1767.08 435.183 1768.84 436.091 1770.31 437.282V434.304H1776.69ZM1748.7 451.151C1748.7 454.951 1749.81 457.929 1752.02 460.084C1754.23 462.24 1757.07 463.317 1760.53 463.317C1762.17 463.317 1763.85 463.034 1765.55 462.467C1767.31 461.899 1768.92 461.077 1770.4 459.999L1770.31 441.621C1768.67 440.544 1766.91 439.693 1765.04 439.069C1763.22 438.445 1761.49 438.133 1759.85 438.133C1756.5 438.133 1753.81 439.296 1751.76 441.621C1749.72 443.89 1748.7 447.067 1748.7 451.151Z" fill="black"/>
<path d="M1818.96 452.342H1791.39C1791.79 455.915 1793.06 458.751 1795.22 460.85C1797.37 462.892 1800.12 463.913 1803.47 463.913C1808.12 463.913 1812.35 462.126 1816.15 458.553L1818.36 462.382C1816.71 464.31 1814.64 465.87 1812.15 467.061C1809.65 468.196 1806.85 468.763 1803.73 468.763C1800.21 468.763 1797 468.025 1794.11 466.551C1791.22 465.076 1788.95 463.006 1787.3 460.34C1785.66 457.617 1784.84 454.526 1784.84 451.065C1784.84 447.549 1785.6 444.457 1787.13 441.791C1788.72 439.069 1790.85 436.998 1793.52 435.58C1796.24 434.106 1799.24 433.368 1802.53 433.368C1807.64 433.368 1811.64 434.928 1814.53 438.048C1817.48 441.167 1818.96 445.393 1818.96 450.725V452.342ZM1812.74 448.428C1812.74 445.195 1811.78 442.642 1809.85 440.77C1807.98 438.899 1805.54 437.963 1802.53 437.963C1799.58 437.963 1797.09 438.899 1795.05 440.77C1793.01 442.642 1791.79 445.195 1791.39 448.428H1812.74Z" fill="black"/>
<path d="M1087.25 463.232H1093.89V424.349H1087.25V419.84H1128.18V434.389H1122.82V424.349H1100.86V440.43H1115.33H1118.9V445.28H1115.33H1100.86V463.232H1107.5V467.742H1087.25V463.232Z" fill="black"/>
<path d="M1150.21 468.763C1146.64 468.763 1143.49 468.025 1140.77 466.551C1138.05 465.076 1135.92 463.005 1134.39 460.34C1132.91 457.617 1132.17 454.497 1132.17 450.98C1132.17 447.464 1132.91 444.372 1134.39 441.706C1135.92 439.04 1138.05 436.998 1140.77 435.58C1143.49 434.105 1146.64 433.368 1150.21 433.368C1153.79 433.368 1156.93 434.105 1159.66 435.58C1162.44 436.998 1164.59 439.04 1166.12 441.706C1167.65 444.372 1168.42 447.435 1168.42 450.895C1168.42 454.412 1167.65 457.532 1166.12 460.254C1164.59 462.977 1162.44 465.076 1159.66 466.551C1156.93 468.025 1153.79 468.763 1150.21 468.763ZM1150.21 463.828C1153.73 463.828 1156.56 462.665 1158.72 460.34C1160.88 457.957 1161.95 454.809 1161.95 450.895C1161.95 447.095 1160.88 444.06 1158.72 441.791C1156.56 439.466 1153.73 438.303 1150.21 438.303C1146.7 438.303 1143.89 439.466 1141.79 441.791C1139.69 444.117 1138.64 447.18 1138.64 450.98C1138.64 454.837 1139.69 457.957 1141.79 460.34C1143.94 462.665 1146.75 463.828 1150.21 463.828Z" fill="black"/>
<path d="M1194.76 433.879C1196.92 433.879 1199.18 434.446 1201.57 435.58L1200.04 441.281C1198.11 440.033 1196.15 439.409 1194.16 439.409C1191.9 439.409 1190 440.345 1188.46 442.217C1186.99 444.032 1186.25 446.556 1186.25 449.789L1186.17 463.232H1192.12V467.742H1173.49V463.232H1179.96V438.813H1173.49V434.304H1186.17V440.43C1187.98 436.062 1190.85 433.879 1194.76 433.879Z" fill="black"/>
<path d="M1220.26 467.742C1213.8 467.742 1210.56 464.452 1210.56 457.872V438.813H1205.03V434.304H1210.56V422.903L1216.86 420.435V434.304H1225.71V438.813H1216.86V457.532C1216.86 459.63 1217.2 461.105 1217.88 461.956C1218.56 462.807 1219.72 463.232 1221.37 463.232H1226.47V467.742H1220.26Z" fill="black"/>
<path d="M1253.17 433.879C1255.33 433.879 1257.6 434.446 1259.98 435.58L1258.45 441.281C1256.52 440.033 1254.56 439.409 1252.58 439.409C1250.31 439.409 1248.41 440.345 1246.88 442.217C1245.4 444.032 1244.66 446.556 1244.66 449.789L1244.58 463.232H1250.53V467.742H1231.9V463.232H1238.37V438.813H1231.9V434.304H1244.58V440.43C1246.39 436.062 1249.26 433.879 1253.17 433.879Z" fill="black"/>
<path d="M1299.27 463.232V467.742H1288.46L1288.12 464.764C1286.3 466.125 1284.49 467.118 1282.67 467.742C1280.86 468.366 1278.82 468.678 1276.55 468.678C1273.14 468.678 1270.37 467.742 1268.21 465.87C1266.11 463.941 1265.06 461.559 1265.06 458.723C1265.06 455.093 1266.28 452.455 1268.72 450.81C1271.22 449.109 1274.48 448.258 1278.5 448.258C1281.4 448.258 1284.49 448.626 1287.78 449.364V445.875C1287.78 443.323 1287.07 441.394 1285.65 440.09C1284.29 438.785 1282.36 438.133 1279.87 438.133C1278.22 438.133 1276.32 438.416 1274.17 438.984C1272.07 439.494 1270.14 440.231 1268.38 441.196L1266.51 437.112C1268.38 435.921 1270.54 435.013 1272.97 434.389C1275.47 433.765 1277.8 433.453 1279.95 433.453C1284.32 433.453 1287.75 434.531 1290.25 436.686C1292.74 438.785 1293.99 441.65 1293.99 445.28V463.232H1299.27ZM1271.02 458.383C1271.02 460.141 1271.58 461.587 1272.72 462.722C1273.91 463.8 1275.5 464.338 1277.48 464.338C1280.83 464.338 1284.26 463.119 1287.78 460.68V453.022C1284.77 452.342 1281.82 452.001 1278.93 452.001C1276.66 452.001 1274.76 452.512 1273.23 453.533C1271.76 454.497 1271.02 456.114 1271.02 458.383Z" fill="black"/>
<path d="M1344.36 463.232V467.742H1326.41V463.232H1331.94V445.79C1331.94 443.465 1331.37 441.65 1330.24 440.345C1329.11 439.04 1327.55 438.388 1325.56 438.388C1323.92 438.388 1322.24 438.7 1320.54 439.324C1318.9 439.891 1317.08 440.77 1315.1 441.962V463.232H1321.14V467.742H1302.42V463.232H1308.88V438.813H1302.42V434.304H1315.1V437.622C1319.52 434.843 1323.55 433.453 1327.18 433.453C1330.35 433.453 1332.96 434.446 1335 436.431C1337.1 438.36 1338.15 441.082 1338.15 444.599V463.232H1344.36Z" fill="black"/>
<path d="M1366.82 469.735H1373.46V430.852H1366.82V426.342H1407.75V440.892H1402.39V430.852H1380.44V446.932H1394.9H1398.48V451.782H1394.9H1380.44V469.735H1387.07V474.244H1366.82V469.735Z" fill="black"/>
<path d="M1413.77 469.735H1420.4V430.852H1413.77V426.342H1454.69V440.892H1449.33V430.852H1427.38V446.932H1441.85H1445.42V451.782H1441.85H1427.38V469.735H1434.02V474.244H1413.77V469.735Z" fill="black"/>
<path d="M1660.55 463.233H1666.84V423.414H1660.72V418.989H1673.14V449.874V451.321V463.233H1678.58V467.742H1660.55V463.233Z" fill="black"/>
<path fill-rule="evenodd" clip-rule="evenodd" d="M1673.14 451.314L1689.56 467.735H1699.34V463.225H1692.71L1679.6 450.292L1673.13 450.293L1673.14 451.314Z" fill="black"/>
<path fill-rule="evenodd" clip-rule="evenodd" d="M1673.14 449.271L1689.42 434.291H1699.21V438.8H1692.57L1679.6 450.292L1673.13 450.292L1673.14 449.271Z" fill="black"/>
<path d="M1471.89 474.236V469.727H1478.52V430.85H1465.42V443.015H1460.23V426.342H1503.45V443.015H1498.26V430.85H1485.41V469.727H1492.05V474.236H1471.89Z" fill="black"/>
</svg>
