<svg width="374" height="353" viewBox="0 0 374 353" fill="none" xmlns="http://www.w3.org/2000/svg">
<rect x="0.894531" y="0.983643" width="372.237" height="351.55" rx="29" fill="white"/>
<path fill-rule="evenodd" clip-rule="evenodd" d="M34.2098 118.694C45.3103 57.1621 100.769 21.6478 149.718 22.2716L271.275 22.2361C324.321 22.8138 362.206 65.7614 356.058 118.656L340.4 234.851C329.299 296.382 273.84 331.897 224.891 331.273L102.677 331.27C49.6699 330.653 11.8237 287.721 17.9689 234.851L34.2098 118.694Z" fill="black"/>
<path fill-rule="evenodd" clip-rule="evenodd" d="M34.2098 118.694C45.3103 57.1621 100.769 21.6478 149.718 22.2716L271.275 22.2361C324.321 22.8138 362.206 65.7614 356.058 118.656L340.4 234.851C329.299 296.382 273.84 331.897 224.891 331.273L102.677 331.27C49.6699 330.653 11.8237 287.721 17.9689 234.851L34.2098 118.694Z" fill="black"/>
<path fill-rule="evenodd" clip-rule="evenodd" d="M346.844 187.032H211.71C209.775 197.754 200.112 203.941 191.583 203.831L175.332 331.272L153.939 331.272L170.288 203.831C161.053 203.724 154.457 196.242 155.528 187.032H24.6548L27.4446 167.079C41.9372 166.939 78.6405 166.792 158.358 166.792C160.293 156.071 169.955 149.883 178.484 149.99L195.358 22.2584L215.875 22.2524L199.665 149.985C208.907 150.086 215.508 157.57 214.438 166.787H349.572L346.844 187.032Z" fill="white"/>
<path fill-rule="evenodd" clip-rule="evenodd" d="M349.572 166.787L355.072 125.97C348.369 109.824 338.847 97.6361 327.429 99.6216C305.631 103.412 286.984 153.407 282.608 165.141C282.408 165.678 282.203 166.227 281.994 166.787H305.037C306.514 163.393 307.998 160.008 309.495 156.635C314.491 145.378 320.336 135.606 326.377 134.871C333.03 134.062 339.699 148.163 342.664 159.834C343.061 161.398 343.303 162.986 343.514 164.367C343.654 165.288 343.781 166.117 343.93 166.787H349.572ZM296.303 187.032H274.18C267.447 203.651 258.712 222.732 248.696 236.461L248.356 236.928C245.735 240.533 242.644 244.784 237.939 245.263C234.269 245.634 231.385 242.034 229.244 239.361L229.242 239.358C225.137 234.224 221.701 228.64 218.7 222.796C214.383 214.389 210.426 205.821 206.671 197.164C202.621 201.536 196.883 203.9 191.583 203.831L190.643 211.205C196.952 226.375 200.908 235.003 206.924 246.717C211.024 254.702 215.482 261.755 219.864 267.167C224.149 272.459 228.819 276.742 233.232 278.182C237.537 279.587 243.409 278.313 247.539 275.497C250.918 273.193 254.734 268.835 258.276 263.98C261.905 259.005 265.633 252.973 268.848 246.741C278.843 227.363 287.628 207.187 296.303 187.032ZM167.045 153.539C163.477 145.375 159.724 137.297 155.653 129.368C155.519 129.108 155.364 128.802 155.189 128.457L155.146 128.371C152.183 122.508 143.737 105.796 135.977 106.955C132.59 107.451 130.271 109.915 128.191 112.427C116.041 127.11 107.381 147.317 99.5665 166.826C91.4135 166.836 84.0276 166.849 77.3477 166.863C86.2972 146.021 95.4469 124.921 105.505 105.422C108.719 99.1906 112.447 93.1582 116.076 88.1837C119.617 83.3289 123.434 78.9703 126.814 76.6657C130.943 73.8506 136.852 72.6121 141.157 74.0173C145.57 75.4584 150.203 79.7044 154.488 84.996C158.87 90.4078 163.328 97.4612 167.429 105.446C172.409 115.146 175.979 122.73 180.641 133.665L178.484 149.99C174.63 149.942 170.544 151.179 167.045 153.539ZM68.6635 187.032H91.4585C90.9192 188.335 90.3795 189.623 89.8383 190.894C79.5478 215.054 62.1842 253.071 45.7832 255.923C34.5123 257.883 25.3636 245.585 18.6865 229.72L24.6548 187.032H29.9713C30.4708 188.584 31.1729 191.322 31.8994 194.179L31.9238 194.273L31.931 194.305C34.8955 205.976 40.1832 221.483 46.8358 220.673C52.8755 219.939 58.9333 209.08 63.9298 197.823C65.5112 194.26 67.0878 190.66 68.6635 187.032Z" fill="#63EEA9"/>
</svg>
