<svg width="1394" height="354" viewBox="0 0 1394 354" fill="none" xmlns="http://www.w3.org/2000/svg">
<rect y="1.38562" width="1394" height="351.55" rx="29" fill="white"/>
<path d="M462.236 257.845L481.79 135.211C483.348 125.86 486.111 118.704 490.079 113.745C494.188 108.786 499.005 105.385 504.531 103.543C510.057 101.701 515.654 100.851 521.322 100.993C533.082 100.993 544.134 101.205 554.477 101.63C564.821 102.056 575.094 102.622 585.295 103.331L581.895 125.222H524.722C519.338 125.222 515.229 126.568 512.395 129.26C509.703 131.952 507.861 136.061 506.869 141.587L502.193 171.343L564.679 173.043L561.279 193.659L498.58 195.147L488.591 257.845H462.236Z" fill="black"/>
<path d="M579.09 257.845L598.644 135.211C600.202 125.86 602.965 118.704 606.933 113.745C611.042 108.786 615.859 105.385 621.385 103.543C626.911 101.701 632.508 100.851 638.176 100.993C649.936 100.993 660.988 101.205 671.331 101.63C681.675 102.056 691.947 102.622 702.149 103.331L698.749 125.222H641.576C636.192 125.222 632.083 126.568 629.249 129.26C626.557 131.952 624.715 136.061 623.723 141.587L619.047 171.343L681.533 173.043L678.133 193.659L615.434 195.147L605.445 257.845H579.09Z" fill="black"/>
<path d="M734.576 257.845L755.617 124.584H710.347L714.173 100.993H831.068L827.242 124.584H781.972L760.931 257.845H734.576Z" fill="black"/>
<path d="M827.328 257.843L852.195 100.991H913.831C921.199 100.991 927.787 102.195 933.597 104.604C939.548 106.871 944.294 110.909 947.837 116.719C951.379 122.386 953.15 130.392 953.15 140.735C953.15 142.861 952.938 145.482 952.513 148.599C952.087 151.575 951.662 154.267 951.237 156.676C949.82 166.311 947.412 174.316 944.011 180.692C940.752 186.927 936.856 191.886 932.322 195.57C927.787 199.254 922.899 201.875 917.656 203.434C912.414 204.993 907.171 205.772 901.929 205.772C895.127 205.772 888.114 205.418 880.887 204.709C873.661 204.001 867.569 203.292 862.609 202.584L853.683 257.843H827.328ZM865.585 182.18H898.741C903.133 182.18 907.1 181.259 910.643 179.417C914.327 177.434 917.373 174.387 919.782 170.278C922.332 166.027 924.103 160.572 925.095 153.913C925.379 152.071 925.662 150.087 925.945 147.962C926.229 145.836 926.37 144.278 926.37 143.286C926.37 136.343 924.812 131.526 921.695 128.833C918.719 126 914.398 124.583 908.73 124.583H874.724L865.585 182.18Z" fill="black"/>
<path d="M936.521 257.843L1013.03 100.991H1046.19L1071.69 257.843H1044.49L1038.54 220.862H981.579L963.726 257.843H936.521ZM991.568 197.27H1035.99L1025.79 123.733L991.568 197.27Z" fill="black"/>
<path d="M1145.17 259.119C1128.3 259.119 1115.91 254.585 1107.97 245.516C1100.04 236.448 1096.07 223.696 1096.07 207.26C1096.07 202.159 1096.28 196.845 1096.71 191.319C1097.27 185.793 1097.98 180.338 1098.83 174.954C1101.38 158.518 1105.28 144.703 1110.52 133.509C1115.76 122.316 1122.78 113.885 1131.56 108.217C1140.35 102.55 1151.26 99.7158 1164.29 99.7158C1176.2 99.7158 1186.19 100.637 1194.26 102.479C1202.34 104.179 1208.93 105.879 1214.03 107.58L1210.63 128.196C1204.25 126.779 1197.52 125.645 1190.44 124.795C1183.35 123.803 1176.13 123.307 1168.76 123.307C1162.66 123.307 1157.28 124.158 1152.6 125.858C1148.07 127.558 1144.03 130.534 1140.49 134.784C1137.09 138.893 1134.11 144.632 1131.56 152C1129.01 159.368 1126.82 168.72 1124.97 180.055C1124.12 184.872 1123.42 189.69 1122.85 194.507C1122.42 199.325 1122.21 203.646 1122.21 207.472C1122.21 217.249 1124.41 224.404 1128.8 228.938C1133.33 233.331 1141.13 235.527 1152.18 235.527C1161.96 235.527 1169.89 235.315 1175.98 234.889C1182.08 234.323 1188.1 233.614 1194.05 232.764L1190.65 253.38C1183.71 255.647 1176.2 257.135 1168.12 257.843C1160.19 258.694 1152.53 259.119 1145.17 259.119Z" fill="black"/>
<path d="M1214.63 257.845L1239.5 100.986H1265.85L1255.44 167.3L1318.05 100.986H1344.41L1277.2 179.505L1325.28 257.845H1299.15L1251.92 189.4L1240.98 257.845H1214.63Z" fill="black"/>
<path fill-rule="evenodd" clip-rule="evenodd" d="M47.5925 121.853C58.6931 60.3215 114.152 24.8073 163.101 25.431L284.658 25.3955C337.704 25.9733 375.589 68.9208 369.441 121.816L353.783 238.01C342.682 299.542 287.222 335.056 238.274 334.432L116.06 334.43C63.0525 333.812 25.2068 290.88 31.3523 238.01L47.5925 121.853Z" fill="black"/>
<path d="M32.8525 227.28L39.9219 176.717C40.2035 177.77 41.0299 180.43 41.8664 183.123C42.8452 186.274 43.8379 189.47 43.9879 190.188C47.3456 206.275 53.3451 227.289 60.2155 227.289C70.3288 227.289 83.4935 194.758 90.5199 176.017C92.937 169.572 95.5887 163.309 98.4215 157.043C105.248 141.942 112.828 126.505 120.578 111.825C124.383 104.618 139.188 79.6233 154.511 79.6233C169.004 79.6233 182.967 110.068 195.329 138.339C200.391 151.34 205.397 164.483 210.352 177.617C212.568 183.678 215.368 189.703 217.488 194.267L217.489 194.268C218.63 196.724 219.575 198.757 220.126 200.144C231.566 228.951 242.922 242.949 250.234 242.949C259.672 242.949 266.053 232.082 279.842 200.144L279.843 200.142C281.379 196.584 283.028 192.765 284.813 188.67C288.417 180.403 291.744 172.079 294.926 163.528C304.487 137.832 321.352 93.1198 339.458 93.1198C350.534 93.1198 364.792 120.724 367.956 132.836L360.784 186.058C360.143 183.377 359.45 179.595 358.652 175.241C355.333 157.132 350.198 129.11 339.458 129.11C330.004 129.11 319.402 157.588 312.32 176.61C311.826 177.936 311.35 179.217 310.892 180.438C307.788 188.713 304.216 196.718 300.557 204.772C291.704 224.325 289.144 229.979 281.588 244.292C274.916 256.93 264.309 275.579 250.234 275.579C235.122 275.579 221.913 249.242 208.32 222.138C207.098 219.701 205.872 217.257 204.642 214.826L203.999 213.317C198.976 201.521 193.587 188.865 188.329 175.668C186.475 171.485 184.407 165.756 182.134 159.461C174.905 139.433 165.605 113.669 154.511 113.669C143.169 113.669 134.408 126.933 116.598 167.786C114.459 172.692 112.639 177.707 110.82 182.722C109.024 187.671 107.228 192.621 105.126 197.466L104.741 198.353C94.5642 221.813 76.5281 263.391 60.2155 263.391C48.6593 263.391 37.7154 239.158 32.8525 227.28Z" fill="#63EEA9"/>
<path d="M40.868 169.95L38.0391 190.196H168.912C167.842 199.406 174.437 206.887 183.672 206.995L167.328 334.431L188.721 334.431L204.967 206.995C213.496 207.105 223.159 200.917 225.094 190.196H360.226L362.955 169.95H227.822C228.893 160.734 222.292 153.25 213.049 153.148L229.232 25.4117L208.712 25.4177L191.868 153.154C183.34 153.047 173.677 159.228 171.742 169.95C128.129 169.95 84.4816 169.53 40.868 169.95Z" fill="white"/>
</svg>
