<svg width="374" height="354" viewBox="0 0 374 354" fill="none" xmlns="http://www.w3.org/2000/svg">
<rect x="0.894531" y="1.93872" width="372.237" height="351.55" rx="29" fill="white"/>
<path fill-rule="evenodd" clip-rule="evenodd" d="M34.5925 119.853C45.6931 58.3215 101.152 22.8073 150.101 23.431L271.658 23.3955C324.704 23.9733 362.589 66.9208 356.441 119.816L340.783 236.01C329.682 297.542 274.222 333.056 225.274 332.432L103.06 332.43C50.0525 331.812 12.2068 288.88 18.3523 236.01L34.5925 119.853Z" fill="black"/>
<path d="M19.8525 225.28L26.9219 174.717C27.2035 175.77 28.0299 178.43 28.8664 181.123C29.8452 184.274 30.8379 187.47 30.9879 188.188C34.3456 204.275 40.3451 225.289 47.2155 225.289C57.3288 225.289 70.4935 192.758 77.5199 174.017C79.937 167.572 82.5887 161.309 85.4215 155.043C92.2479 139.942 99.8276 124.505 107.578 109.825C111.383 102.618 126.188 77.6233 141.511 77.6233C156.004 77.6233 169.967 108.068 182.329 136.339C187.391 149.34 192.397 162.483 197.352 175.617C199.568 181.678 202.368 187.703 204.488 192.267L204.489 192.268C205.63 194.724 206.575 196.757 207.126 198.144C218.566 226.951 229.922 240.949 237.234 240.949C246.672 240.949 253.053 230.082 266.842 198.144L266.843 198.142C268.379 194.584 270.028 190.765 271.813 186.67C275.417 178.403 278.744 170.079 281.926 161.528C291.487 135.832 308.352 91.1198 326.458 91.1198C337.534 91.1198 351.792 118.724 354.956 130.836L347.784 184.058C347.143 181.377 346.45 177.595 345.652 173.241C342.333 155.132 337.198 127.11 326.458 127.11C317.004 127.11 306.402 155.588 299.32 174.61C298.826 175.936 298.35 177.217 297.892 178.438C294.788 186.713 291.216 194.718 287.557 202.772C278.704 222.325 276.144 227.979 268.588 242.292C261.916 254.93 251.309 273.579 237.234 273.579C222.122 273.579 208.913 247.242 195.32 220.138C194.098 217.701 192.872 215.257 191.642 212.826L190.999 211.317C185.976 199.521 180.587 186.865 175.329 173.668C173.475 169.485 171.407 163.756 169.134 157.461C161.905 137.433 152.605 111.669 141.511 111.669C130.169 111.669 121.408 124.933 103.598 165.786C101.459 170.692 99.6395 175.707 97.8197 180.722C96.0241 185.671 94.2282 190.621 92.1256 195.466L91.741 196.353C81.5642 219.813 63.5281 261.391 47.2155 261.391C35.6593 261.391 24.7154 237.158 19.8525 225.28Z" fill="#63EEA9"/>
<path d="M27.868 167.95L25.0391 188.195H155.912C154.842 197.406 161.437 204.887 170.672 204.995L154.328 332.431L175.721 332.431L191.967 204.995C200.496 205.105 210.159 198.917 212.094 188.195H347.226L349.955 167.95H214.822C215.893 158.733 209.292 151.249 200.049 151.148L216.232 23.4116L195.712 23.4176L178.868 151.154C170.34 151.046 160.677 157.228 158.742 167.95C115.129 167.95 71.4816 167.529 27.868 167.95Z" fill="white"/>
</svg>
