<svg width="1315" height="312" viewBox="0 0 1315 312" fill="none" xmlns="http://www.w3.org/2000/svg">
<path d="M432.236 234.845L451.79 112.211C453.348 102.86 456.111 95.7043 460.079 90.7451C464.188 85.7859 469.005 82.3853 474.531 80.5433C480.057 78.7013 485.654 77.8512 491.322 77.9928C503.082 77.9928 514.134 78.2054 524.477 78.6305C534.821 79.0555 545.094 79.6223 555.295 80.3308L551.895 102.222H494.722C489.338 102.222 485.229 103.568 482.395 106.26C479.703 108.952 477.861 113.061 476.869 118.587L472.193 148.343L534.679 150.043L531.279 170.659L468.58 172.147L458.591 234.845H432.236Z" fill="black"/>
<path d="M549.09 234.845L568.644 112.211C570.202 102.86 572.965 95.7043 576.933 90.7451C581.042 85.7859 585.859 82.3853 591.385 80.5433C596.911 78.7013 602.508 77.8512 608.176 77.9928C619.936 77.9928 630.988 78.2054 641.331 78.6305C651.675 79.0555 661.947 79.6223 672.149 80.3308L668.749 102.222H611.576C606.192 102.222 602.083 103.568 599.249 106.26C596.557 108.952 594.715 113.061 593.723 118.587L589.047 148.343L651.533 150.043L648.133 170.659L585.434 172.147L575.445 234.845H549.09Z" fill="black"/>
<path d="M704.576 234.845L725.617 101.584H680.347L684.173 77.9928H801.068L797.242 101.584H751.972L730.931 234.845H704.576Z" fill="black"/>
<path d="M797.328 234.843L822.195 77.991H883.831C891.199 77.991 897.787 79.1954 903.597 81.6042C909.548 83.8712 914.294 87.9094 917.837 93.7188C921.379 99.3864 923.15 107.392 923.15 117.735C923.15 119.861 922.938 122.482 922.513 125.599C922.087 128.575 921.662 131.267 921.237 133.676C919.82 143.311 917.412 151.316 914.011 157.692C910.752 163.927 906.856 168.886 902.322 172.57C897.787 176.254 892.899 178.875 887.656 180.434C882.414 181.993 877.171 182.772 871.929 182.772C865.127 182.772 858.114 182.418 850.887 181.709C843.661 181.001 837.569 180.292 832.609 179.584L823.683 234.843H797.328ZM835.585 159.18H868.741C873.133 159.18 877.1 158.259 880.643 156.417C884.327 154.434 887.373 151.387 889.782 147.278C892.332 143.027 894.103 137.572 895.095 130.913C895.379 129.071 895.662 127.087 895.945 124.962C896.229 122.836 896.37 121.278 896.37 120.286C896.37 113.343 894.812 108.526 891.695 105.833C888.719 103 884.398 101.583 878.73 101.583H844.724L835.585 159.18Z" fill="black"/>
<path d="M906.521 234.843L983.034 77.991H1016.19L1041.69 234.843H1014.49L1008.54 197.862H951.579L933.726 234.843H906.521ZM961.568 174.27H1005.99L995.786 100.733L961.568 174.27Z" fill="black"/>
<path d="M1115.17 236.119C1098.3 236.119 1085.91 231.585 1077.97 222.516C1070.04 213.448 1066.07 200.696 1066.07 184.26C1066.07 179.159 1066.28 173.845 1066.71 168.319C1067.27 162.793 1067.98 157.338 1068.83 151.954C1071.38 135.518 1075.28 121.703 1080.52 110.509C1085.76 99.3156 1092.78 90.885 1101.56 85.2173C1110.35 79.5496 1121.26 76.7158 1134.29 76.7158C1146.2 76.7158 1156.19 77.6368 1164.26 79.4788C1172.34 81.1791 1178.93 82.8794 1184.03 84.5797L1180.63 105.196C1174.25 103.779 1167.52 102.645 1160.44 101.795C1153.35 100.803 1146.13 100.307 1138.76 100.307C1132.66 100.307 1127.28 101.158 1122.6 102.858C1118.07 104.558 1114.03 107.534 1110.49 111.784C1107.09 115.893 1104.11 121.632 1101.56 129C1099.01 136.368 1096.82 145.72 1094.97 157.055C1094.12 161.872 1093.42 166.69 1092.85 171.507C1092.42 176.325 1092.21 180.646 1092.21 184.472C1092.21 194.249 1094.41 201.404 1098.8 205.938C1103.33 210.331 1111.13 212.527 1122.18 212.527C1131.96 212.527 1139.89 212.315 1145.98 211.889C1152.08 211.323 1158.1 210.614 1164.05 209.764L1160.65 230.38C1153.71 232.647 1146.2 234.135 1138.12 234.843C1130.19 235.694 1122.53 236.119 1115.17 236.119Z" fill="black"/>
<path d="M1184.63 234.845L1209.5 77.9858H1235.85L1225.44 144.3L1288.05 77.9858H1314.41L1247.2 156.505L1295.28 234.845H1269.15L1221.92 166.4L1210.98 234.845H1184.63Z" fill="black"/>
<path fill-rule="evenodd" clip-rule="evenodd" d="M17.5925 98.8531C28.6931 37.3218 84.1521 1.8075 133.101 2.43127L254.658 2.39575C307.704 2.97351 345.589 45.921 339.441 98.816L323.783 215.011C312.682 276.542 257.222 312.056 208.274 311.432L86.0603 311.43C33.0525 310.813 -4.7932 267.881 1.35231 215.011L17.5925 98.8531Z" fill="black"/>
<path d="M2.85254 204.28L9.92194 153.717C10.2035 154.771 11.0299 157.431 11.8664 160.123C12.8452 163.274 13.8379 166.47 13.9879 167.189C17.3456 183.275 23.3451 204.289 30.2155 204.289C40.3288 204.289 53.4935 171.758 60.5199 153.018C62.937 146.572 65.5887 140.309 68.4215 134.043C75.2479 118.942 82.8276 103.505 90.5778 88.8257C94.3835 81.6178 109.188 56.6235 124.511 56.6235C139.004 56.6235 152.967 87.0682 165.329 115.339C170.391 128.34 175.397 141.483 180.352 154.617C182.568 160.678 185.368 166.704 187.488 171.267L187.489 171.268C188.63 173.725 189.575 175.757 190.126 177.144C201.566 205.951 212.922 219.949 220.234 219.949C229.672 219.949 236.053 209.083 249.842 177.144L249.843 177.142C251.379 173.584 253.028 169.765 254.813 165.67C258.417 157.403 261.744 149.079 264.926 140.528C274.487 114.833 291.352 70.12 309.458 70.12C320.534 70.12 334.792 97.7246 337.956 109.836L330.784 163.058C330.143 160.377 329.45 156.596 328.652 152.241C325.333 134.132 320.198 106.111 309.458 106.111C300.004 106.111 289.402 134.588 282.32 153.61C281.826 154.937 281.35 156.217 280.892 157.439C277.788 165.714 274.216 173.718 270.557 181.772C261.704 201.325 259.144 206.979 251.588 221.292C244.916 233.93 234.309 252.58 220.234 252.58C205.122 252.58 191.913 226.242 178.32 199.138C177.098 196.701 175.872 194.257 174.642 191.826L173.999 190.317C168.976 178.522 163.587 165.865 158.329 152.668C156.475 148.485 154.407 142.756 152.134 136.461C144.905 116.433 135.605 90.6693 124.511 90.6693C113.169 90.6693 104.408 103.934 86.5978 144.786C84.4591 149.692 82.6395 154.707 80.8197 159.723C79.0241 164.671 77.2282 169.621 75.1256 174.467L74.741 175.353C64.5642 198.814 46.5281 240.392 30.2155 240.392C18.6593 240.392 7.71543 216.158 2.85254 204.28Z" fill="#63EEA9"/>
<path d="M10.868 146.95L8.03906 167.196H138.912C137.842 176.406 144.437 183.888 153.672 183.995L137.328 311.431L158.721 311.431L174.967 183.995C183.496 184.105 193.159 177.918 195.094 167.196H330.226L332.955 146.95H197.822C198.893 137.734 192.292 130.25 183.049 130.148L199.232 2.41199L178.712 2.41798L161.868 130.154C153.34 130.047 143.677 136.228 141.742 146.95C98.1286 146.95 54.4816 146.53 10.868 146.95Z" fill="white"/>
</svg>
